<?xml version="1.0" standalone="no"?>
<!DOCTYPE svg PUBLIC "-//W3C//DTD SVG 1.1//EN" "http://www.w3.org/Graphics/SVG/1.1/DTD/svg11.dtd" >
<svg xmlns="http://www.w3.org/2000/svg">
<metadata>
This is a custom SVG webfont generated by Font Squirrel.
Copyright   :  1989 1994 2001 Adobe Systems Incorporated All rights reserved
Designer    : Morris Fuller Benton
Foundry URL : httpwwwadobecomtype
</metadata>
<defs>
<font id="FranklinGothicStdCondensed" horiz-adv-x="1024" >
<font-face units-per-em="2048" ascent="1548" descent="-500" />
<missing-glyph horiz-adv-x="548" />
<glyph unicode=" "  horiz-adv-x="548" />
<glyph unicode="&#x09;" horiz-adv-x="548" />
<glyph unicode="&#xa0;" horiz-adv-x="548" />
<glyph unicode="!" horiz-adv-x="720" d="M170 1458h381l-64 -950h-221zM193 0v356h356v-356h-356z" />
<glyph unicode="&#x22;" horiz-adv-x="1062" d="M158 772v686h270v-686h-270zM635 772v686h270v-686h-270z" />
<glyph unicode="#" horiz-adv-x="1097" d="M47 412v196h201l33 242h-172v197h198l55 411h205l-55 -411h186l56 411h204l-55 -411h148v-197h-174l-33 -242h147v-196h-176l-55 -412h-205l55 412h-186l-55 -412h-205l55 412h-172zM453 608h186l33 242h-187z" />
<glyph unicode="$" horiz-adv-x="1097" d="M-16 340l305 123q45 -106 99 -157.5t153 -51.5q63 0 107 36t44 87q0 59 -35.5 101t-93 68.5t-126 51.5t-137.5 59.5t-126 82.5t-93 133t-36 200q0 162 137 286t322 128v176h110v-184q143 -23 248 -108t148 -206l-293 -123q-74 162 -201 162q-51 0 -89 -31.5t-38 -91.5 q0 -47 49 -86t122 -64.5t159 -64.5t158.5 -84t122 -128t49.5 -189q0 -193 -123 -324t-312 -161v-197h-110v188q-182 4 -320.5 99.5t-199.5 269.5z" />
<glyph unicode="%" horiz-adv-x="1402" d="M57 1098q0 381 266.5 381t266.5 -381t-266.5 -381t-266.5 381zM172 -47l858 1552h189l-859 -1552h-188zM266 1098q0 -70 1 -100.5t6.5 -68.5t17.5 -51.5t33 -13.5q39 0 48 51.5t9 182.5q0 70 -1 100.5t-6 68.5t-17.5 51t-32.5 13q-39 0 -48.5 -51t-9.5 -182zM813 360.5 q0 380.5 266.5 380.5t266.5 -380.5t-266.5 -380.5t-266.5 380.5zM1022 360q0 -70 1 -100.5t6 -68t17.5 -51t32.5 -13.5q39 0 48.5 51t9.5 182q0 70 -1 101t-6.5 68.5t-17.5 51t-33 13.5q-39 0 -48 -51.5t-9 -182.5z" />
<glyph unicode="&#x26;" horiz-adv-x="1290" d="M12 360q0 264 320 422q-123 193 -123 332q0 166 118.5 269.5t293.5 103.5q158 0 275.5 -83t117.5 -243q0 -201 -285 -379l164 -211q49 47 98 228l266 -64q-8 -59 -66 -178t-122 -199q31 -31 98.5 -51t110.5 -16v-320q-109 0 -239 42t-191 114q-186 -156 -406 -156 q-168 0 -299 111.5t-131 277.5zM381 401q0 -51 41 -93t94 -42q102 0 143 47l-196 265q-82 -83 -82 -177zM528 1159q0 -23 10.5 -53.5t18.5 -47t31.5 -56t23.5 -41.5q8 12 33 42.5t37 50t24.5 49.5t12.5 56q0 45 -27.5 76t-70.5 31q-41 0 -67 -32t-26 -75z" />
<glyph unicode="'" horiz-adv-x="548" d="M139 772v686h271v-686h-271z" />
<glyph unicode="(" horiz-adv-x="681" d="M156 635q0 379 141 823h301q-147 -424 -147 -864q0 -463 147 -782h-311q-131 413 -131 823z" />
<glyph unicode=")" horiz-adv-x="681" d="M84 -188q147 424 147 864q0 463 -147 782h311q131 -414 131 -823q0 -379 -141 -823h-301z" />
<glyph unicode="*" horiz-adv-x="796" d="M43 1133l63 192l226 -143l26 16l-55 260h197l-62 -260l25 -18l237 137l56 -195l-271 -16l-12 -25l201 -186l-172 -111l-92 252h-21l-106 -243l-170 112l206 174l-8 27z" />
<glyph unicode="+" horiz-adv-x="1228" d="M96 395v246h396v395h245v-395h396v-246h-396v-395h-245v395h-396z" />
<glyph unicode="," horiz-adv-x="548" d="M61 -330l162 330h-127v356h357v-311l-205 -375h-187z" />
<glyph unicode="-" horiz-adv-x="606" d="M57 389v283h492v-283h-492z" />
<glyph unicode="." horiz-adv-x="548" d="M96 0v356h357v-356h-357z" />
<glyph unicode="/" horiz-adv-x="645" d="M-119 -29l639 1516h244l-637 -1516h-246z" />
<glyph unicode="0" horiz-adv-x="1097" d="M37 729q0 750 512 750t512 -750q0 -332 -126 -540.5t-386 -208.5q-121 0 -213 39.5t-148.5 105t-90.5 165t-47 204t-13 235.5zM418 508q0 -160 31.5 -221.5t99 -61.5t99.5 61.5t32 221.5v442q0 160 -32 221.5t-99.5 61.5t-99 -61.5t-31.5 -221.5v-442z" />
<glyph unicode="1" horiz-adv-x="1097" d="M195 0v246h221v852l-221 -54v248q70 10 197.5 66.5t158.5 99.5h209v-1212h217v-246h-782z" />
<glyph unicode="2" horiz-adv-x="1097" d="M43 0v250q2 2 82 73.5t117 105.5t117.5 113t125.5 134t98.5 124.5t78 130t24.5 109.5q0 66 -30.5 111t-94.5 45q-123 0 -176 -205l-315 80q47 188 188 298t336 110q201 0 331 -106.5t130 -303.5q0 -84 -31 -165t-73 -142.5t-113.5 -132t-126 -113.5t-137 -107.5 t-121.5 -97.5v-4h583v-307h-993z" />
<glyph unicode="3" horiz-adv-x="1097" d="M23 285l268 133q39 -86 83 -133t120 -47q84 0 132 46t48 130q0 66 -20.5 107.5t-59.5 61t-78 25.5t-94 6h-92v246h82q233 0 233 189q0 74 -38 123t-101 49q-135 0 -184 -177l-275 121q68 152 198 233t298 81q195 0 333 -113t138 -301q0 -125 -91.5 -206t-224.5 -107v-4 q356 -45 357 -334q0 -141 -85 -242.5t-206 -146.5t-256 -45q-342 0 -485 305z" />
<glyph unicode="4" horiz-adv-x="1097" d="M25 356v234l520 868h354v-868h174v-234h-176v-356h-356v356h-516zM283 590h272v475h-4z" />
<glyph unicode="5" horiz-adv-x="1097" d="M43 340l276 100q27 -96 70 -149t127 -53q80 0 125 69.5t45 151.5q0 100 -44 170.5t-136 70.5q-94 0 -156 -110l-256 106l58 762h841l-22 -295h-557l-19 -272q88 55 215 55q207 0 326 -132t119 -339t-161 -351t-378 -144q-176 0 -301 96t-172 264z" />
<glyph unicode="6" horiz-adv-x="1097" d="M31 709q0 133 30.5 263t92 246.5t172 188.5t254.5 72q387 0 452 -383l-313 -49q-23 174 -139 174q-39 0 -69 -20.5t-47.5 -61.5t-28.5 -76t-15 -92.5t-6 -81t-2 -68.5q150 88 274 88q154 0 267.5 -110.5t113.5 -276.5q0 -246 -136 -394t-378 -148q-141 0 -246.5 66.5 t-163 177t-85 232.5t-27.5 253zM410 625q0 -147 14 -232q35 -156 129 -155q145 0 145 231q0 207 -145 207q-57 0 -143 -51z" />
<glyph unicode="7" horiz-adv-x="1097" d="M76 1151v307h946v-184q-213 -348 -310.5 -619.5t-117.5 -654.5h-418q74 494 469 1151h-569z" />
<glyph unicode="8" horiz-adv-x="1097" d="M23 375q0 129 82.5 216t211.5 118v4q-109 41 -172 131t-63 207q0 199 147.5 313.5t348.5 114.5q190 0 318 -95.5t128 -283.5q0 -106 -67.5 -190.5t-170.5 -123.5v-4q289 -80 289 -376q0 -207 -163.5 -316.5t-387.5 -109.5q-66 0 -134 14t-135 47t-118 78t-82.5 111.5 t-31.5 144.5zM379 381q0 -70 47 -113t121 -43q68 0 120 41t52 111q0 25 -7 47t-14.5 38.5t-27 34t-29.5 28t-39 25.5t-38 19t-40.5 19.5t-38.5 17.5q-6 -8 -30.5 -36.5t-28.5 -35t-18.5 -30t-17.5 -36.5t-7 -36.5t-4 -50.5zM426 1116q0 -37 10 -66.5t37 -54t44.5 -38t58 -38 t55.5 -32.5q2 4 14 16t16.5 17.5t15.5 17.5t15 18.5t13.5 18.5t12.5 20.5t9 21.5t8 24.5t4 24.5t2 28q0 78 -41 120.5t-116 42.5q-63 0 -110.5 -40t-47.5 -101z" />
<glyph unicode="9" horiz-adv-x="1097" d="M31 936q0 246 136 394.5t378 148.5q141 0 246.5 -66.5t163 -177.5t85 -232.5t27.5 -252.5q0 -133 -30.5 -263.5t-92 -247t-172 -188t-254.5 -71.5q-387 0 -452 382l313 50q23 -174 139 -174q39 0 68.5 20.5t47 61t29 75.5t15.5 92.5t6 81t2 68.5q-150 -88 -274 -88 q-154 0 -267.5 110.5t-113.5 276.5zM399 989q0 -207 146 -207q57 0 143 52q0 147 -14 231q-35 156 -129 156q-146 -1 -146 -232z" />
<glyph unicode=":" horiz-adv-x="548" d="M96 0v356h357v-356h-357zM96 672v356h357v-356h-357z" />
<glyph unicode=";" horiz-adv-x="548" d="M61 -330l162 330h-127v356h357v-311l-205 -375h-187zM96 672v356h357v-356h-357z" />
<glyph unicode="&#x3c;" horiz-adv-x="1228" d="M96 422v192l1037 439v-236l-719 -299l719 -299v-235z" />
<glyph unicode="=" horiz-adv-x="1228" d="M96 166v246h1037v-246h-1037zM96 625v245h1037v-245h-1037z" />
<glyph unicode="&#x3e;" horiz-adv-x="1228" d="M96 -16v235l719 299l-719 299v236l1037 -439v-192z" />
<glyph unicode="?" horiz-adv-x="909" d="M16 1077q14 193 136 297.5t319 104.5q168 0 295 -84t127 -244q0 -61 -24.5 -118.5t-48 -86t-75.5 -84.5q-47 -49 -74.5 -83t-51 -92t-23.5 -122v-57h-295v92q0 96 41 180t89 131t89 106.5t41 115.5q0 113 -119 112q-72 0 -104.5 -66.5t-32.5 -152.5zM274 0v356h357v-356 h-357z" />
<glyph unicode="@" horiz-adv-x="1638" d="M61 729q0 315 226.5 536.5t556.5 221.5q190 0 354 -69.5t271.5 -215t107.5 -338.5q0 -143 -49 -248.5t-130 -160t-167 -79t-178 -24.5q-133 0 -133 92h-5q-61 -92 -194 -92q-104 0 -185 89t-81 231q0 162 99 282.5t255 120.5q141 0 217 -104l18 88h166l-61 -340 q-2 -18 -9 -52t-11.5 -57.5t-4.5 -31.5q0 -39 27 -39q74 0 139.5 69.5t65.5 198.5q0 457 -512 483q-240 0 -400.5 -163.5t-160.5 -397.5q0 -236 163.5 -398.5t413.5 -162.5q303 0 459 119l174 -41q-199 -274 -633 -275q-340 0 -569.5 221.5t-229.5 536.5zM664 694 q0 -63 34.5 -104t96.5 -41q80 0 130 53t50 131q0 66 -38 106t-101 40q-72 0 -122 -57.5t-50 -127.5z" />
<glyph unicode="A" horiz-adv-x="1099" d="M-18 0l342 1458h483l311 -1458h-373l-57 295h-338l-63 -295h-305zM401 553h236l-107 594h-4z" />
<glyph unicode="B" horiz-adv-x="1175" d="M94 0v1458h615q197 0 312.5 -97t115.5 -251q0 -131 -79 -225t-196 -119v-4q301 -74 301 -361q0 -184 -130 -292.5t-347 -108.5h-592zM463 270h135q74 0 129 42t55 143q0 82 -48 131t-136 49h-135v-365zM463 881h121q94 0 139 44t45 113q0 162 -176 162h-129v-319z" />
<glyph unicode="C" horiz-adv-x="1138" d="M20 729q0 143 27 268t87.5 240t177 182.5t276.5 67.5q252 0 381 -149.5t129 -389.5h-344q0 61 -10.5 115.5t-48.5 104t-99 49.5q-55 0 -93 -37t-55.5 -109t-23.5 -150.5t-6 -193.5q0 -102 3 -166.5t13 -132.5t29.5 -103.5t54.5 -59t86 -23.5q94 0 131 71.5t43 221.5 l320 -29q0 -242 -136.5 -388.5t-373.5 -146.5q-129 0 -229.5 43t-163 114t-103.5 171t-56.5 204.5t-15.5 225.5z" />
<glyph unicode="D" horiz-adv-x="1175" d="M94 0v1458h400q330 0 497.5 -187.5t167.5 -518.5q0 -162 -34.5 -294t-107.5 -236.5t-195 -163t-283 -58.5h-445zM463 258h41q61 0 108 22.5t74 68.5t43 89t23.5 113t8.5 108.5t1 106.5q0 434 -268 434h-31v-942z" />
<glyph unicode="E" d="M94 0v1458h918v-282h-549v-295h368v-283h-368v-303h549v-295h-918z" />
<glyph unicode="F" horiz-adv-x="985" d="M94 0v1458h879v-282h-510v-295h362v-283h-362v-598h-369z" />
<glyph unicode="G" horiz-adv-x="1175" d="M20 692q0 123 15.5 231.5t55.5 215t102.5 181.5t164 121t230.5 46q262 0 393 -147.5t131 -401.5h-356q-8 152 -37 215.5t-123 63.5q-55 0 -93 -37t-55.5 -109t-23.5 -150.5t-6 -193.5q0 -102 3 -166.5t13 -132.5t29.5 -103.5t54.5 -59t86 -23.5q86 0 132 76.5t46 160.5 h-184v246h504v-748h-154l-71 136q-59 -68 -146.5 -105t-173.5 -37q-274 0 -405.5 193.5t-131.5 527.5z" />
<glyph unicode="H" horiz-adv-x="1214" d="M94 0v1458h369v-565h289v565h368v-1458h-368v598h-289v-598h-369z" />
<glyph unicode="I" horiz-adv-x="569" d="M100 0v1458h369v-1458h-369z" />
<glyph unicode="J" horiz-adv-x="681" d="M-2 -12v276q41 -10 76 -10q94 0 119.5 44t25.5 146v1014h369v-1163q0 -324 -406 -324q-78 1 -184 17z" />
<glyph unicode="K" horiz-adv-x="1175" d="M94 0v1458h369v-629h4l356 629h363l-324 -481l318 -977h-361l-201 631h-2l-153 -230v-401h-369z" />
<glyph unicode="L" horiz-adv-x="985" d="M94 0v1458h369v-1200h500v-258h-869z" />
<glyph unicode="M" horiz-adv-x="1554" d="M94 0v1458h516l158 -817h4l186 817h502v-1458h-368v1077h-5l-251 -1077h-224l-231 1114h-4v-1114h-283z" />
<glyph unicode="N" horiz-adv-x="1214" d="M94 0v1458h307l420 -784h4v784h295v-1458h-295l-432 813h-4v-813h-295z" />
<glyph unicode="O" horiz-adv-x="1175" d="M20 729.5q0 149.5 29 277.5t91.5 239.5t177 176t270 64.5t270.5 -64.5t177.5 -176t91 -239.5t28.5 -277.5t-28.5 -277.5t-91 -240t-177.5 -176.5t-270.5 -64.5t-270 64.5t-177 176.5t-91.5 240t-29 277.5zM418 729q0 -92 1 -137t5 -114.5t15.5 -101.5t28.5 -69t48 -51 t72 -14t71.5 14t48 51t29 69t15.5 101.5t5 113.5t1 138t-1 138t-5 114t-15.5 101.5t-29 68.5t-48 51.5t-71.5 14.5t-72 -14.5t-48 -51.5t-28.5 -68.5t-15.5 -101.5t-5 -115t-1 -137z" />
<glyph unicode="P" horiz-adv-x="1138" d="M94 0v1458h549q219 0 357.5 -104.5t138.5 -309.5q0 -238 -147.5 -349t-387.5 -111q-47 0 -141 8v-592h-369zM463 842h65q94 0 162 42t68 136t-67.5 137t-162.5 43h-65v-358z" />
<glyph unicode="Q" horiz-adv-x="1175" d="M20 729.5q0 149.5 29 277.5t91.5 239.5t177 176t270 64.5t270.5 -64.5t177.5 -176t91 -239.5t28.5 -278q0 -195 -57.5 -365.5t-175.5 -275.5q33 -59 74.5 -79.5t133.5 -20.5v-295q-178 0 -288.5 64.5t-147.5 222.5q-16 -2 -53 -7q-8 0 -25.5 -1t-27.5 -1 q-156 0 -270.5 64.5t-177 176.5t-91.5 240t-29 277.5zM418 729q0 -92 1 -137t5 -114.5t15.5 -101.5t28.5 -69t48 -51t72 -14t71.5 14t48 51t29 69t15.5 101.5t5 113.5t1 138t-1 138t-5 114t-15.5 101.5t-29 68.5t-48 51.5t-71.5 14.5t-72 -14.5t-48 -51.5t-28.5 -68.5 t-15.5 -101.5t-5 -115t-1 -137z" />
<glyph unicode="R" horiz-adv-x="1138" d="M94 0v1458h549q219 0 354.5 -104.5t135.5 -309.5q0 -113 -68 -203.5t-176 -131.5l244 -709h-365l-182 631h-123v-631h-369zM463 864h72q229 0 229 160q0 102 -62.5 133t-177.5 31h-61v-324z" />
<glyph unicode="S" horiz-adv-x="1062" d="M-16 340l305 123q45 -106 99 -157.5t153 -51.5q63 0 107 36t44 87q0 59 -35.5 101t-93 68.5t-126 51.5t-137.5 59.5t-126 82.5t-93 133t-36 200q0 164 141.5 289t329.5 125q178 0 311.5 -90t182.5 -232l-293 -123q-74 162 -201 162q-51 0 -89 -31.5t-38 -91.5 q0 -47 49 -86t122 -64.5t159 -64.5t158.5 -84t122 -128t49.5 -189q0 -219 -156 -356.5t-377 -137.5q-188 0 -328.5 96.5t-203.5 272.5z" />
<glyph unicode="T" horiz-adv-x="987" d="M-20 1176v282h1028v-282h-330v-1176h-369v1176h-329z" />
<glyph unicode="U" horiz-adv-x="1175" d="M94 463v995h369v-1012q0 -205 160 -204q152 0 151 223v993h307v-995q0 -244 -130 -368t-373 -124q-484 0 -484 492z" />
<glyph unicode="V" horiz-adv-x="1062" d="M-18 1458h370l172 -1016h4l246 1016h307l-399 -1458h-375z" />
<glyph unicode="W" horiz-adv-x="1630" d="M2 1458h354l142 -905h4l180 905h330l166 -905h4l164 905h282l-317 -1458h-316l-172 969h-4l-196 -969h-318z" />
<glyph unicode="X" horiz-adv-x="1099" d="M-18 0l397 725l-356 733h403l156 -381l190 381h334l-371 -665l383 -793h-397l-195 438l-207 -438h-337z" />
<glyph unicode="Y" horiz-adv-x="1099" d="M-18 1458h385l192 -573l232 573h327l-403 -870v-588h-369v567z" />
<glyph unicode="Z" horiz-adv-x="985" d="M0 0v184l537 1004h-471v270h919v-184l-536 -1004h528v-270h-977z" />
<glyph unicode="[" horiz-adv-x="681" d="M145 -188v1646h459v-196h-188v-1254h188v-196h-459z" />
<glyph unicode="\" horiz-adv-x="645" d="M-119 1487h244l639 -1516h-246z" />
<glyph unicode="]" horiz-adv-x="681" d="M78 8h188v1254h-188v196h459v-1646h-459v196z" />
<glyph unicode="^" horiz-adv-x="1228" d="M150 711l356 747h217l356 -747h-239l-226 501l-227 -501h-237z" />
<glyph unicode="_" d="M0 -154h1024v-102h-1024v102z" />
<glyph unicode="`" horiz-adv-x="493" d="M-88 1434h313l191 -295h-205z" />
<glyph unicode="a" horiz-adv-x="985" d="M31 291q0 98 50 171t134 111.5t171 58t179 21.5v70q0 51 -22.5 86t-63.5 35q-94 0 -108 -135l-289 59q27 143 141.5 214t268.5 71q168 0 286.5 -78t118.5 -236v-573q0 -129 31 -166h-342q-4 16 -6 50t-5 44q-100 -119 -249 -119q-135 0 -215 83t-80 233zM362 307 q0 -111 97 -110q49 0 106 65v232q-109 -10 -156 -46.5t-47 -140.5z" />
<glyph unicode="b" d="M104 0v1458h332v-489h4q35 37 92.5 60.5t108.5 23.5q166 0 259 -147.5t93 -379.5q0 -129 -33.5 -245.5t-122.5 -204.5t-221 -88q-172 0 -278 159l-62 -147h-172zM436 330v-14q0 -52 28 -84q32 -36 81 -35q66 0 85 63.5t19 218.5v78v95q0 30 -3 75t-9 63.5t-17.5 41 t-30 29.5t-42.5 7q-41 0 -92 -41l-19 -18v-479z" />
<glyph unicode="c" horiz-adv-x="948" d="M31 492q0 227 124 394t345 167q100 0 177 -33t119 -80t67.5 -107.5t33.5 -104.5t8 -83h-282q0 84 -17 129q-29 70 -96 70q-76 0 -99.5 -82t-23.5 -258q0 -170 28.5 -238.5t94.5 -68.5q127 0 127 196l258 -37q-18 -186 -122.5 -283.5t-287.5 -97.5q-211 0 -332.5 155 t-121.5 362z" />
<glyph unicode="d" d="M31 475q0 117 17.5 211t54 174t105 124t163.5 44q127 0 217 -90v520h332v-1458h-314v100h-4q-72 -68 -124 -90t-128 -22q-156 0 -237.5 139t-81.5 348zM375 530q0 -188 16.5 -267t75.5 -79q80 0 121 78v535q-33 47 -105 47q-27 0 -47 -13.5t-31.5 -44t-17.5 -52t-9 -71 t-3 -66.5v-67z" />
<glyph unicode="e" horiz-adv-x="948" d="M31 516q0 231 118.5 384t337.5 153q221 0 326 -158t105 -385v-70h-556q0 -244 150 -243q59 0 105.5 38.5t62.5 102.5l223 -82q-8 -29 -30.5 -65.5t-67.5 -90t-128 -89.5t-185 -36q-225 0 -343 156t-118 385zM362 637h248q0 45 -4 74.5t-15 63.5t-38 51.5t-68 17.5 q-66 0 -94.5 -61.5t-28.5 -145.5z" />
<glyph unicode="f" horiz-adv-x="606" d="M-20 795v233h135v115q0 182 87 263t257 81q61 0 168 -12v-254q-37 8 -62 8q-119 0 -119 -88v-113h181v-233h-181v-795h-331v795h-135z" />
<glyph unicode="g" horiz-adv-x="985" d="M-10 -94q0 76 56 121t138 59v4q-145 47 -145 168q0 70 63.5 124t137.5 73v4q-193 82 -193 270q0 84 41 148.5t106.5 101.5t135 55.5t137.5 18.5q172 0 285 -74q18 45 104 90t158 45v-262q-25 25 -51 37q-33 16 -66 16q-41 0 -55 -22q49 -57 49 -168q0 -141 -126 -222 t-280 -81q-68 0 -141 16q-35 -43 -35 -59q0 -27 13.5 -42.5t48.5 -22.5t61.5 -8t83.5 -1q90 0 157.5 -9.5t143.5 -35t118 -86t42 -152.5q0 -154 -138.5 -236.5t-371.5 -82.5q-61 0 -126 6t-153 25.5t-143 66.5t-55 115zM248 -45q0 -90 219 -90q227 0 227 90q0 94 -227 94 q-219 0 -219 -94zM354 723q0 -66 27 -115t86 -49q117 0 117 178q0 68 -29 118t-88 50q-113 0 -113 -182z" />
<glyph unicode="h" d="M88 0v1458h332v-567h4q109 162 293 162q100 0 159.5 -62.5t59.5 -169.5v-821h-332v727q0 92 -80 92q-53 0 -86 -43l-18 -24v-752h-332z" />
<glyph unicode="i" horiz-adv-x="491" d="M80 0v1028h332v-1028h-332zM80 1163v295h332v-295h-332z" />
<glyph unicode="j" horiz-adv-x="491" d="M-39 -43q6 -6 39 -6q45 0 62.5 26.5t17.5 85.5v965h332v-989q0 -98 -37 -168t-83 -103.5t-120 -52t-114 -20.5t-97 -2v264zM80 1163v295h332v-295h-332z" />
<glyph unicode="k" horiz-adv-x="985" d="M88 0v1458h332v-751h4l260 321h303l-258 -295l270 -733h-344l-153 473h-4l-78 -92v-381h-332z" />
<glyph unicode="l" horiz-adv-x="491" d="M80 0v1458h332v-1458h-332z" />
<glyph unicode="m" horiz-adv-x="1515" d="M76 0v1028h332v-137h4q109 162 293 162q78 0 140 -45t66 -117h4q109 162 293 162q104 0 168 -56.5t64 -162.5v-834h-332v727q0 92 -80 92q-53 0 -86 -43l-18 -24v-752h-332v727q0 92 -80 92q-53 0 -86 -43l-18 -24v-752h-332z" />
<glyph unicode="n" d="M88 0v1028h332v-137h4q109 162 293 162q100 0 159.5 -62.5t59.5 -169.5v-821h-332v727q0 92 -80 92q-53 0 -86 -43l-18 -24v-752h-332z" />
<glyph unicode="o" horiz-adv-x="987" d="M31 518q0 240 118.5 387.5t344 147.5t344 -147.5t118.5 -387.5q0 -250 -116.5 -396.5t-346 -146.5t-346 146.5t-116.5 396.5zM375 518q0 -188 27.5 -261t91 -73t91 73t27.5 261q0 182 -24.5 254t-94 72t-94 -72t-24.5 -254z" />
<glyph unicode="p" d="M104 -307v1335h320v-108h4q98 121 234 120q154 0 242.5 -128t88.5 -359q0 -106 -16 -198.5t-54 -175.5t-110 -131t-172 -48q-115 0 -205 90v-397h-332zM436 223q41 -39 103 -39q39 0 62.5 19.5t33.5 69t12 93.5t2 130q0 209 -15.5 284.5t-78.5 75.5q-39 0 -74 -25.5 t-45 -56.5v-551z" />
<glyph unicode="q" d="M31 489q0 127 36.5 248t127 212t215.5 91q178 0 292 -149l48 137h170v-1335h-330v391l-4 -2q-80 -94 -211 -94q-117 0 -197 71.5t-113.5 181t-33.5 248.5zM375 485q0 -186 25.5 -249.5t80.5 -63.5q59 0 107 53v477v11q0 131 -103 131q-68 0 -89 -84.5t-21 -274.5z" />
<glyph unicode="r" horiz-adv-x="720" d="M88 0v1028h326v-156h4q29 90 120 135.5t199 45.5v-336q-78 29 -135 28q-78 0 -114.5 -18t-67.5 -61v-666h-332z" />
<glyph unicode="s" horiz-adv-x="872" d="M14 266l254 80q37 -72 75 -110.5t103 -38.5q47 0 76 21.5t29 53.5q0 47 -52.5 79t-126 56.5t-147 57.5t-126 101.5t-52.5 166.5q0 45 22.5 96.5t66.5 103.5t126 86t184 34q135 0 244 -69t150 -210l-232 -61q-66 131 -155 131q-47 0 -73 -19.5t-26 -46.5q0 -45 52.5 -76.5 t126 -57.5t147.5 -58.5t126 -99t52 -160.5q0 -164 -112.5 -257.5t-299.5 -93.5q-166 0 -278.5 80t-153.5 211z" />
<glyph unicode="t" horiz-adv-x="645" d="M-20 795v233h135v369h331v-369h183v-233h-183v-437q0 -45 4.5 -66.5t28 -40t74.5 -18.5q39 0 76 11v-242q-94 -27 -234 -27q-281 0 -280 261v559h-135z" />
<glyph unicode="u" d="M88 207v821h332v-727q0 -92 80 -92q53 0 86 43l18 24v752h332v-1028h-332v137h-4q-109 -162 -293 -162q-100 0 -159.5 63t-59.5 169z" />
<glyph unicode="v" horiz-adv-x="835" d="M-16 1028h344l116 -559h5l141 559h262l-330 -1028h-250z" />
<glyph unicode="w" horiz-adv-x="1251" d="M-12 1028h325l97 -530h4l114 530h279l94 -530h4l121 530h238l-267 -1028h-262l-114 573h-5l-137 -573h-258z" />
<glyph unicode="x" horiz-adv-x="911" d="M-14 0l311 492l-303 536h368l130 -280l137 280h293l-306 -473l310 -555h-367l-137 289l-139 -289h-297z" />
<glyph unicode="y" horiz-adv-x="835" d="M-16 1028h342l120 -596h5l141 596h260l-346 -1061q-49 -152 -153.5 -213t-264.5 -61q-33 0 -98 8v236q47 -10 88 -11q186 0 186 123q0 47 -14 92z" />
<glyph unicode="z" horiz-adv-x="798" d="M8 0v172l408 635h-350v221h725v-197l-379 -610h376v-221h-780z" />
<glyph unicode="{" horiz-adv-x="681" d="M4 537v196q33 0 70 6t79 37t42 82v318q0 131 95 206.5t183 75.5h205v-184h-107q-119 0 -118 -133v-305q0 -55 -25 -96.5t-62.5 -61t-71.5 -28.5t-69 -11v-8q35 -2 69 -11.5t71.5 -29t62.5 -60.5t25 -96v-305q0 -133 118 -133h107v-184h-205q-88 0 -183 75.5t-95 206.5 v318q0 51 -42 81.5t-79 37t-70 6.5z" />
<glyph unicode="|" horiz-adv-x="454" d="M104 -512v2048h246v-2048h-246z" />
<glyph unicode="}" horiz-adv-x="681" d="M4 -4h107q119 0 118 133v305q0 72 43 119t89.5 61.5t95.5 16.5v8q-49 2 -95.5 16.5t-89.5 61.5t-43 119v305q0 133 -118 133h-107v184h205q88 0 183 -75.5t95 -206.5v-318q0 -51 42 -82t79 -37t70 -6v-196q-33 0 -70 -6.5t-79 -37t-42 -81.5v-318q0 -131 -95 -206.5 t-183 -75.5h-205v184z" />
<glyph unicode="~" horiz-adv-x="1228" d="M141 524q92 176 256 176q82 0 234.5 -71.5t202.5 -71.5q39 0 74.5 26.5t54 51t51.5 74.5l73 -197q-41 -55 -67.5 -86t-77.5 -60.5t-111 -29.5q-76 0 -215 72q-131 72 -229 71q-102 0 -172 -151z" />
<glyph unicode="&#xa1;" horiz-adv-x="720" d="M170 -287l63 951h222l96 -951h-381zM172 815v356h356v-356h-356z" />
<glyph unicode="&#xa2;" horiz-adv-x="1097" d="M111 492q0 227 123.5 394t345.5 167q45 0 82 -6l28 118l78 -18l-29 -119q96 -35 155.5 -117t75 -146.5t15.5 -119.5h-283q0 88 -20 141h-4l-143 -585q23 -16 55 -17q127 0 127 209l258 -37q-18 -186 -122.5 -283.5t-287.5 -97.5q-49 0 -84 9l-39 -160l-75 18l39 162 q-139 55 -217 191.5t-78 296.5zM467 492q0 -119 12 -183h4l129 535h-22q-76 0 -99.5 -83t-23.5 -269z" />
<glyph unicode="&#xa3;" horiz-adv-x="1097" d="M14 199q4 2 39 16t43 18.5t39 17.5t41 21.5t32.5 24.5t32 30.5t21.5 33t16.5 41t4.5 47.5q0 115 -70 249h-188v111h147q-49 133 -49 242q0 215 131 325.5t332 110.5q199 0 300 -80t169 -277l-293 -88l-8 33q-10 33 -13.5 41t-14.5 35t-21.5 37t-28 25.5t-39 21.5t-47.5 6 q-51 0 -87 -37t-36 -86q0 -39 10 -85t21.5 -77.5t30 -80t24.5 -66.5h283v-111h-258v-82q-6 -172 -187 -305l4 -4h58q57 0 151 -20.5t133 -20.5q123 0 232 64l114 -281q-39 -31 -135 -54.5t-194 -23.5q-133 0 -338 52q-63 14 -117 14q-113 0 -209 -62z" />
<glyph unicode="&#xa4;" horiz-adv-x="1097" d="M14 324l119 118q-94 106 -94 287q0 195 94 287l-119 119l129 131l117 -115q109 86 287 86q84 0 160.5 -24.5t117.5 -61.5l129 115l129 -136l-114 -114q86 -92 86 -287q0 -178 -86 -291l114 -114l-129 -127l-116 118q-100 -94 -291 -94q-186 0 -291 94l-113 -118z M285 729.5q0 -108.5 76.5 -185.5t185 -77t185.5 77t77 185.5t-77 185t-185.5 76.5t-185 -76.5t-76.5 -185z" />
<glyph unicode="&#xa5;" horiz-adv-x="1097" d="M33 1458h360l164 -581h4l201 581h303l-272 -633h165v-159h-235l-33 -78v-94h268v-160h-268v-334h-319v334h-269v160h269v94l-31 78h-238v159h177z" />
<glyph unicode="&#xa6;" horiz-adv-x="454" d="M104 358h246v-716h-246v716zM104 666v716h246v-716h-246z" />
<glyph unicode="&#xa7;" horiz-adv-x="1097" d="M61 639q0 106 55.5 194.5t149.5 143.5v4q-12 2 -30.5 20.5t-37 65.5t-18.5 109q0 154 120 232.5t284 78.5q215 0 405 -101l-115 -206q-168 86 -272 86q-102 0 -102 -86q0 -33 55 -60.5t134 -57.5t158 -72t134 -120.5t55 -185.5q0 -199 -221 -330q72 -27 115 -98.5 t43 -159.5q0 -158 -129 -248t-293 -90q-215 0 -447 131l127 201q66 -37 97.5 -54.5t91 -36.5t108.5 -19q125 0 125 79q0 45 -44 84t-109.5 66t-142 65.5t-142 81.5t-110 117t-44.5 166zM344 670q0 -96 256 -197q53 33 103.5 84t50.5 92q0 45 -36 82t-75 55.5t-103.5 43 t-84.5 32.5q-41 -37 -59.5 -57.5t-35 -56t-16.5 -78.5z" />
<glyph unicode="&#xa8;" horiz-adv-x="493" d="M-82 1141v258h258v-258h-258zM317 1141v258h258v-258h-258z" />
<glyph unicode="&#xa9;" horiz-adv-x="1638" d="M61 729q0 313 222.5 535.5t536 222.5t535.5 -222.5t222 -535.5t-222 -535.5t-535.5 -222.5t-536 222.5t-222.5 535.5zM283 729q0 -248 149.5 -404.5t387 -156.5t387 156.5t149.5 404.5t-149.5 404.5t-387 156.5t-387 -156.5t-149.5 -404.5zM475 731q0 168 97.5 274.5 t261.5 106.5q123 0 207.5 -70.5t103.5 -201.5h-164q-14 113 -147 112q-78 0 -120 -58t-42 -158.5t42 -162t120 -61.5q66 0 106.5 29.5t44.5 87.5h172q-18 -133 -107 -205t-216 -72q-158 0 -258.5 108.5t-100.5 270.5z" />
<glyph unicode="&#xaa;" horiz-adv-x="641" d="M23 1024q0 78 60 129t136 69.5t158 18.5v29q0 86 -55 86q-61 0 -72 -84l-187 37q16 86 92 128t181 42q109 0 185.5 -46.5t76.5 -142.5v-340q0 -49 20 -100h-227q-8 33 -8 61q-63 -74 -158 -73q-102 0 -152 50t-50 136zM244 1042q0 -82 63 -81q25 0 47.5 15t22.5 30v137 q-133 -1 -133 -101z" />
<glyph unicode="&#xab;" horiz-adv-x="1099" d="M4 530l453 435l145 -146l-299 -289l299 -288l-145 -146zM498 530l452 435l146 -146l-299 -289l299 -288l-146 -146z" />
<glyph unicode="&#xac;" horiz-adv-x="1228" d="M96 625v245h1037v-649h-246v404h-791z" />
<glyph unicode="&#xad;" horiz-adv-x="606" d="M57 389v283h492v-283h-492z" />
<glyph unicode="&#xae;" horiz-adv-x="1638" d="M61 729q0 313 222.5 535.5t536 222.5t535.5 -222.5t222 -535.5t-222 -535.5t-535.5 -222.5t-536 222.5t-222.5 535.5zM283 729q0 -248 149.5 -404.5t387 -156.5t387 156.5t149.5 404.5t-149.5 404.5t-387 156.5t-387 -156.5t-149.5 -404.5zM549 367v729h291 q139 0 207.5 -48.5t68.5 -168.5q0 -195 -170 -207l182 -305h-176l-161 295h-82v-295h-160zM709 797h139q51 0 73.5 16t22.5 65.5t-22.5 66t-73.5 16.5h-139v-164z" />
<glyph unicode="&#xaf;" horiz-adv-x="493" d="M-59 1180v172h612v-172h-612z" />
<glyph unicode="&#xb0;" horiz-adv-x="819" d="M104 1173.5q0 124.5 89.5 215t216.5 90.5t216 -90.5t89 -215t-89 -215t-216 -90.5t-216.5 90.5t-89.5 215zM252 1173.5q0 -65.5 46 -111.5t111.5 -46t111.5 46t46 111.5t-46 111.5t-111.5 46t-111.5 -46t-46 -111.5z" />
<glyph unicode="&#xb1;" horiz-adv-x="1228" d="M96 0v246h1037v-246h-1037zM96 549v246h396v241h245v-241h396v-246h-396v-242h-245v242h-396z" />
<glyph unicode="&#xb2;" horiz-adv-x="737" d="M31 592v149q172 143 295 279.5t123 191.5q0 82 -76 82q-86 0 -103 -108l-223 49q31 113 124 178.5t222 65.5q131 0 222.5 -61.5t91.5 -184.5q0 -109 -89.5 -211t-201.5 -180l-66 -49v-5h338v-196h-657z" />
<glyph unicode="&#xb3;" horiz-adv-x="737" d="M27 762l190 82q45 -92 125 -92q111 0 111 98q0 63 -42 83.5t-116 20.5h-59v160h69q47 0 88 24.5t41 71.5q0 43 -23.5 70t-60.5 27q-78 0 -114 -88l-191 71q90 188 338 189q119 0 214 -65.5t95 -180.5q0 -145 -186 -193v-4q86 -8 145.5 -55t59.5 -143 q0 -123 -108.5 -190.5t-252.5 -67.5q-225 0 -323 182z" />
<glyph unicode="&#xb4;" horiz-adv-x="493" d="M78 1139l190 295h314l-299 -295h-205z" />
<glyph unicode="&#xb5;" d="M88 -307v1335h332v-702q0 -92 80 -93q43 0 73.5 37t30.5 105v653h332v-1028h-332v102h-4q-8 -25 -35.5 -50t-64.5 -27q-66 -4 -76 32h-4v-364h-332z" />
<glyph unicode="&#xb6;" horiz-adv-x="1097" d="M12 1094q0 365 467 364h557v-1671h-245v1487h-150v-1487h-246v956q-170 0 -276.5 94.5t-106.5 256.5z" />
<glyph unicode="&#xb7;" horiz-adv-x="548" d="M102 573.5q0 69.5 51.5 120.5t121 51t120.5 -51t51 -120.5t-51 -121t-120.5 -51.5t-121 51.5t-51.5 121z" />
<glyph unicode="&#xb8;" horiz-adv-x="493" d="M-2 -416l35 86q102 -33 164 -32q39 0 70.5 25.5t31.5 60.5q0 31 -25.5 49t-56.5 18q-53 0 -92 -16l-59 41l120 184h127l-88 -125l4 -4q41 18 90 18q63 0 113.5 -46t50.5 -117q0 -186 -266 -187q-98 0 -219 45z" />
<glyph unicode="&#xb9;" horiz-adv-x="737" d="M133 592v160h137v487l-137 -33v162q43 6 127 39t105 59h139v-714h137v-160h-508z" />
<glyph unicode="&#xba;" horiz-adv-x="641" d="M23 1159q0 143 76.5 231.5t222.5 88.5q143 0 219.5 -88t76.5 -232q0 -152 -73.5 -236.5t-223 -84.5t-224 84.5t-74.5 236.5zM244 1159q0 -111 18.5 -154.5t59.5 -43.5q39 0 57 44t18 154q0 109 -16 153t-59 44q-41 0 -59.5 -44t-18.5 -153z" />
<glyph unicode="&#xbb;" horiz-adv-x="1099" d="M4 242l299 288l-299 289l146 146l452 -435l-452 -434zM498 242l299 288l-299 289l145 146l453 -435l-453 -434z" />
<glyph unicode="&#xbc;" horiz-adv-x="1648" d="M63 592v160h138v487l-138 -33v162q43 6 127 39t105 59h139v-714h137v-160h-508zM295 -47l858 1552h188l-858 -1552h-188zM903 201v164l332 509h242v-514h108v-159h-108v-201h-244v201h-330zM1085 360h158v256h-4z" />
<glyph unicode="&#xbd;" horiz-adv-x="1648" d="M63 592v160h138v487l-138 -33v162q43 6 127 39t105 59h139v-714h137v-160h-508zM262 -47l858 1552h189l-858 -1552h-189zM909 0v150q172 143 295 279t123 192q0 82 -76 81q-86 0 -102 -108l-223 49q31 113 124 178.5t222 65.5q131 0 222 -61.5t91 -184.5q0 -109 -89 -211 t-202 -180l-65 -49v-4h338v-197h-658z" />
<glyph unicode="&#xbe;" horiz-adv-x="1648" d="M27 762l190 82q45 -92 125 -92q111 0 111 98q0 63 -42 83.5t-116 20.5h-59v160h69q47 0 88 24.5t41 71.5q0 43 -23.5 70t-60.5 27q-78 0 -114 -88l-191 71q90 188 338 189q119 0 214 -65.5t95 -180.5q0 -145 -186 -193v-4q86 -8 145.5 -55t59.5 -143 q0 -123 -108.5 -190.5t-252.5 -67.5q-225 0 -323 182zM358 -47l859 1552h188l-858 -1552h-189zM940 201v164l332 509h241v-514h109v-159h-109v-201h-243v201h-330zM1122 360h158v256h-4z" />
<glyph unicode="&#xbf;" horiz-adv-x="909" d="M16 20q0 61 25 119t48.5 86.5t74.5 83.5q47 49 74.5 83t51 92.5t23.5 121.5v58h295v-93q0 -96 -41 -180t-89 -131t-89 -106.5t-41 -114.5q0 -113 119 -113q72 0 104.5 66.5t32.5 152.5l289 -51q-14 -193 -136 -297t-319 -104q-168 0 -295 83.5t-127 243.5zM279 815v356 h356v-356h-356z" />
<glyph unicode="&#xc0;" horiz-adv-x="1099" d="M-18 0l342 1458h483l311 -1458h-373l-57 295h-338l-63 -295h-305zM215 1888h313l191 -295h-205zM401 553h236l-107 594h-4z" />
<glyph unicode="&#xc1;" horiz-adv-x="1099" d="M-18 0l342 1458h483l311 -1458h-373l-57 295h-338l-63 -295h-305zM381 1593l190 295h314l-299 -295h-205zM401 553h236l-107 594h-4z" />
<glyph unicode="&#xc2;" horiz-adv-x="1099" d="M-18 0l342 1458h483l311 -1458h-373l-57 295h-338l-63 -295h-305zM188 1593l234 295h256l233 -295h-231l-131 164l-129 -164h-232zM401 553h236l-107 594h-4z" />
<glyph unicode="&#xc3;" horiz-adv-x="1099" d="M-18 0l342 1458h483l311 -1458h-373l-57 295h-338l-63 -295h-305zM174 1604q18 102 79.5 175.5t158.5 73.5q61 0 156.5 -38.5t123.5 -38.5q86 0 99 86h135q-43 -258 -215 -258q-55 0 -167 38.5t-147 38.5q-31 0 -57.5 -25.5t-30.5 -51.5h-135zM401 553h236l-107 594h-4z " />
<glyph unicode="&#xc4;" horiz-adv-x="1099" d="M-18 0l342 1458h483l311 -1458h-373l-57 295h-338l-63 -295h-305zM221 1608v258h258v-258h-258zM401 553h236l-107 594h-4zM621 1608v258h258v-258h-258z" />
<glyph unicode="&#xc5;" horiz-adv-x="1099" d="M-18 0l342 1458h483l311 -1458h-373l-57 295h-338l-63 -295h-305zM369 1757q0 90 64.5 154.5t154.5 64.5t154.5 -64.5t64.5 -154.5t-64.5 -154.5t-154.5 -64.5t-154.5 64.5t-64.5 154.5zM401 553h236l-107 594h-4zM479 1757q0 -45 32 -76.5t77 -31.5t76.5 31.5t31.5 76.5 t-31.5 77t-76.5 32t-77 -32t-32 -77z" />
<glyph unicode="&#xc6;" horiz-adv-x="1441" d="M6 0l313 1458h1111v-282h-562l39 -295h371v-283h-332l41 -303h443v-295h-756l-37 295h-277l-61 -295h-293zM414 553h190l-72 598h-4z" />
<glyph unicode="&#xc7;" horiz-adv-x="1138" d="M20 729q0 143 27 268t87.5 240t177 182.5t276.5 67.5q252 0 381 -149.5t129 -389.5h-344q0 61 -10.5 115.5t-48.5 104t-99 49.5q-55 0 -93 -37t-55.5 -109t-23.5 -150.5t-6 -193.5q0 -102 3 -166.5t13 -132.5t29.5 -103.5t54.5 -59t86 -23.5q94 0 131 71.5t43 221.5 l320 -29q0 -233 -127 -377.5t-353 -155.5l-69 -98l4 -4q41 18 90 18q63 0 113.5 -46t50.5 -117q0 -186 -266 -187q-98 0 -219 45l34 86q102 -33 164 -32q39 0 71 25.5t32 60.5q0 31 -26 49t-56 18q-53 0 -92 -16l-60 41l107 161q-133 16 -229.5 86t-148.5 177.5t-75 227.5 t-23 261z" />
<glyph unicode="&#xc8;" d="M94 0v1458h918v-282h-549v-295h368v-283h-368v-303h549v-295h-918zM178 1888h314l190 -295h-205z" />
<glyph unicode="&#xc9;" d="M94 0v1458h918v-282h-549v-295h368v-283h-368v-303h549v-295h-918zM344 1593l191 295h313l-299 -295h-205z" />
<glyph unicode="&#xca;" d="M94 0v1458h918v-282h-549v-295h368v-283h-368v-303h549v-295h-918zM152 1593l233 295h256l233 -295h-231l-131 164l-129 -164h-231z" />
<glyph unicode="&#xcb;" d="M94 0v1458h918v-282h-549v-295h368v-283h-368v-303h549v-295h-918zM184 1608v258h258v-258h-258zM584 1608v258h258v-258h-258z" />
<glyph unicode="&#xcc;" horiz-adv-x="569" d="M-49 1888h313l191 -295h-205zM100 0v1458h369v-1458h-369z" />
<glyph unicode="&#xcd;" horiz-adv-x="569" d="M100 0v1458h369v-1458h-369zM117 1593l190 295h314l-299 -295h-205z" />
<glyph unicode="&#xce;" horiz-adv-x="569" d="M-76 1593l234 295h256l233 -295h-231l-131 164l-129 -164h-232zM100 0v1458h369v-1458h-369z" />
<glyph unicode="&#xcf;" horiz-adv-x="569" d="M-43 1608v258h258v-258h-258zM100 0v1458h369v-1458h-369zM356 1608v258h258v-258h-258z" />
<glyph unicode="&#xd0;" horiz-adv-x="1175" d="M4 662v184h90v612h400q330 0 497.5 -187.5t167.5 -518.5q0 -162 -34.5 -294t-107.5 -236.5t-195 -163t-283 -58.5h-445v662h-90zM463 258h41q61 0 108 22.5t74 68.5t43 89t23.5 113t8.5 108.5t1 106.5q0 434 -268 434h-31v-354h205v-184h-205v-404z" />
<glyph unicode="&#xd1;" horiz-adv-x="1214" d="M94 0v1458h307l420 -784h4v784h295v-1458h-295l-432 813h-4v-813h-295zM231 1604q18 102 80 175.5t158 73.5q61 0 156.5 -38.5t124.5 -38.5q86 0 98 86h135q-43 -258 -215 -258q-55 0 -167 38.5t-146 38.5q-31 0 -57.5 -25.5t-30.5 -51.5h-136z" />
<glyph unicode="&#xd2;" horiz-adv-x="1175" d="M20 729.5q0 149.5 29 277.5t91.5 239.5t177 176t270 64.5t270.5 -64.5t177.5 -176t91 -239.5t28.5 -277.5t-28.5 -277.5t-91 -240t-177.5 -176.5t-270.5 -64.5t-270 64.5t-177 176.5t-91.5 240t-29 277.5zM254 1888h313l191 -295h-205zM418 729q0 -92 1 -137t5 -114.5 t15.5 -101.5t28.5 -69t48 -51t72 -14t71.5 14t48 51t29 69t15.5 101.5t5 113.5t1 138t-1 138t-5 114t-15.5 101.5t-29 68.5t-48 51.5t-71.5 14.5t-72 -14.5t-48 -51.5t-28.5 -68.5t-15.5 -101.5t-5 -115t-1 -137z" />
<glyph unicode="&#xd3;" horiz-adv-x="1175" d="M20 729.5q0 149.5 29 277.5t91.5 239.5t177 176t270 64.5t270.5 -64.5t177.5 -176t91 -239.5t28.5 -277.5t-28.5 -277.5t-91 -240t-177.5 -176.5t-270.5 -64.5t-270 64.5t-177 176.5t-91.5 240t-29 277.5zM418 729q0 -92 1 -137t5 -114.5t15.5 -101.5t28.5 -69t48 -51 t72 -14t71.5 14t48 51t29 69t15.5 101.5t5 113.5t1 138t-1 138t-5 114t-15.5 101.5t-29 68.5t-48 51.5t-71.5 14.5t-72 -14.5t-48 -51.5t-28.5 -68.5t-15.5 -101.5t-5 -115t-1 -137zM420 1593l190 295h314l-299 -295h-205z" />
<glyph unicode="&#xd4;" horiz-adv-x="1175" d="M20 729.5q0 149.5 29 277.5t91.5 239.5t177 176t270 64.5t270.5 -64.5t177.5 -176t91 -239.5t28.5 -277.5t-28.5 -277.5t-91 -240t-177.5 -176.5t-270.5 -64.5t-270 64.5t-177 176.5t-91.5 240t-29 277.5zM227 1593l234 295h256l233 -295h-231l-131 164l-129 -164h-232z M418 729q0 -92 1 -137t5 -114.5t15.5 -101.5t28.5 -69t48 -51t72 -14t71.5 14t48 51t29 69t15.5 101.5t5 113.5t1 138t-1 138t-5 114t-15.5 101.5t-29 68.5t-48 51.5t-71.5 14.5t-72 -14.5t-48 -51.5t-28.5 -68.5t-15.5 -101.5t-5 -115t-1 -137z" />
<glyph unicode="&#xd5;" horiz-adv-x="1175" d="M20 729.5q0 149.5 29 277.5t91.5 239.5t177 176t270 64.5t270.5 -64.5t177.5 -176t91 -239.5t28.5 -277.5t-28.5 -277.5t-91 -240t-177.5 -176.5t-270.5 -64.5t-270 64.5t-177 176.5t-91.5 240t-29 277.5zM213 1604q18 102 79.5 175.5t158.5 73.5q61 0 156 -38.5 t124 -38.5q86 0 98 86h136q-43 -258 -215 -258q-55 0 -167 38.5t-147 38.5q-31 0 -57.5 -25.5t-30.5 -51.5h-135zM418 729q0 -92 1 -137t5 -114.5t15.5 -101.5t28.5 -69t48 -51t72 -14t71.5 14t48 51t29 69t15.5 101.5t5 113.5t1 138t-1 138t-5 114t-15.5 101.5t-29 68.5 t-48 51.5t-71.5 14.5t-72 -14.5t-48 -51.5t-28.5 -68.5t-15.5 -101.5t-5 -115t-1 -137z" />
<glyph unicode="&#xd6;" horiz-adv-x="1175" d="M20 729.5q0 149.5 29 277.5t91.5 239.5t177 176t270 64.5t270.5 -64.5t177.5 -176t91 -239.5t28.5 -277.5t-28.5 -277.5t-91 -240t-177.5 -176.5t-270.5 -64.5t-270 64.5t-177 176.5t-91.5 240t-29 277.5zM260 1608v258h258v-258h-258zM418 729q0 -92 1 -137t5 -114.5 t15.5 -101.5t28.5 -69t48 -51t72 -14t71.5 14t48 51t29 69t15.5 101.5t5 113.5t1 138t-1 138t-5 114t-15.5 101.5t-29 68.5t-48 51.5t-71.5 14.5t-72 -14.5t-48 -51.5t-28.5 -68.5t-15.5 -101.5t-5 -115t-1 -137zM659 1608v258h259v-258h-259z" />
<glyph unicode="&#xd7;" horiz-adv-x="1228" d="M131 203l315 315l-315 316l168 167l315 -315l316 315l168 -167l-318 -316l318 -315l-168 -168l-316 317l-315 -317z" />
<glyph unicode="&#xd8;" horiz-adv-x="1175" d="M-37 57l156 195q-98 188 -99 477q0 150 29 278t91.5 239.5t177 176t270.5 64.5q248 0 393 -166l137 170l94 -74l-161 -200q104 -193 104 -488q0 -150 -28.5 -277.5t-91 -239.5t-177.5 -176.5t-270 -64.5q-256 0 -402 176l-133 -163zM418 625h4l323 403q-12 94 -49 141.5 t-108 47.5q-41 0 -72 -14.5t-48 -51.5t-28.5 -68.5t-15.5 -101.5t-5 -115t-1 -137v-104zM428 446q12 -102 48 -153t112 -51q41 0 71.5 14t48 51t29 69t15.5 101.5t5 113.5t1 138v123h-4z" />
<glyph unicode="&#xd9;" horiz-adv-x="1175" d="M94 463v995h369v-1012q0 -205 160 -204q152 0 151 223v993h307v-995q0 -244 -130 -368t-373 -124q-484 0 -484 492zM254 1888h313l191 -295h-205z" />
<glyph unicode="&#xda;" horiz-adv-x="1175" d="M94 463v995h369v-1012q0 -205 160 -204q152 0 151 223v993h307v-995q0 -244 -130 -368t-373 -124q-484 0 -484 492zM420 1593l190 295h314l-299 -295h-205z" />
<glyph unicode="&#xdb;" horiz-adv-x="1175" d="M94 463v995h369v-1012q0 -205 160 -204q152 0 151 223v993h307v-995q0 -244 -130 -368t-373 -124q-484 0 -484 492zM227 1593l234 295h256l233 -295h-231l-131 164l-129 -164h-232z" />
<glyph unicode="&#xdc;" horiz-adv-x="1175" d="M94 463v995h369v-1012q0 -205 160 -204q152 0 151 223v993h307v-995q0 -244 -130 -368t-373 -124q-484 0 -484 492zM260 1608v258h258v-258h-258zM659 1608v258h259v-258h-259z" />
<glyph unicode="&#xdd;" horiz-adv-x="1099" d="M-18 1458h385l192 -573l232 573h327l-403 -870v-588h-369v567zM442 1593l191 295h313l-299 -295h-205z" />
<glyph unicode="&#xde;" horiz-adv-x="1138" d="M94 0v1458h369v-184h180q219 0 357.5 -104.5t138.5 -309.5q0 -238 -147.5 -349.5t-387.5 -111.5q-47 0 -141 9v-408h-369zM463 657h55q100 0 170 42t70 137q0 180 -230 180h-65v-359z" />
<glyph unicode="&#xdf;" d="M88 0v1018q0 219 109.5 344t332.5 125q180 0 295 -85t115 -265q0 -227 -223 -281v-4q145 -29 217 -139.5t72 -270.5q0 -227 -94.5 -340.5t-309.5 -113.5h-94v172h27q41 0 68.5 17.5t40.5 40t20.5 66.5t8.5 72.5t1 85.5q0 164 -35 232.5t-111 68.5h-20v185h10 q111 0 111 127v104q0 156 -105 156q-51 0 -77.5 -42t-26.5 -153v-1120h-332z" />
<glyph unicode="&#xe0;" horiz-adv-x="985" d="M31 291q0 98 50 171t134 111.5t171 58t179 21.5v70q0 51 -22.5 86t-63.5 35q-94 0 -108 -135l-289 59q27 143 141.5 214t268.5 71q168 0 286.5 -78t118.5 -236v-573q0 -129 31 -166h-342q-4 16 -6 50t-5 44q-100 -119 -249 -119q-135 0 -215 83t-80 233zM158 1483h313 l191 -295h-205zM362 307q0 -111 97 -110q49 0 106 65v232q-109 -10 -156 -46.5t-47 -140.5z" />
<glyph unicode="&#xe1;" horiz-adv-x="985" d="M31 291q0 98 50 171t134 111.5t171 58t179 21.5v70q0 51 -22.5 86t-63.5 35q-94 0 -108 -135l-289 59q27 143 141.5 214t268.5 71q168 0 286.5 -78t118.5 -236v-573q0 -129 31 -166h-342q-4 16 -6 50t-5 44q-100 -119 -249 -119q-135 0 -215 83t-80 233zM324 1188 l190 295h313l-299 -295h-204zM362 307q0 -111 97 -110q49 0 106 65v232q-109 -10 -156 -46.5t-47 -140.5z" />
<glyph unicode="&#xe2;" horiz-adv-x="985" d="M31 291q0 98 50 171t134 111.5t171 58t179 21.5v70q0 51 -22.5 86t-63.5 35q-94 0 -108 -135l-289 59q27 143 141.5 214t268.5 71q168 0 286.5 -78t118.5 -236v-573q0 -129 31 -166h-342q-4 16 -6 50t-5 44q-100 -119 -249 -119q-135 0 -215 83t-80 233zM131 1188 l234 295h256l233 -295h-231l-131 164l-130 -164h-231zM362 307q0 -111 97 -110q49 0 106 65v232q-109 -10 -156 -46.5t-47 -140.5z" />
<glyph unicode="&#xe3;" horiz-adv-x="985" d="M31 291q0 98 50 171t134 111.5t171 58t179 21.5v70q0 51 -22.5 86t-63.5 35q-94 0 -108 -135l-289 59q27 143 141.5 214t268.5 71q168 0 286.5 -78t118.5 -236v-573q0 -129 31 -166h-342q-4 16 -6 50t-5 44q-100 -119 -249 -119q-135 0 -215 83t-80 233zM117 1198 q18 102 79.5 176t157.5 74q61 0 156.5 -39t124.5 -39q86 0 98 86h135q-43 -258 -215 -258q-55 0 -166.5 39t-146.5 39q-31 0 -57.5 -25.5t-30.5 -52.5h-135zM362 307q0 -111 97 -110q49 0 106 65v232q-109 -10 -156 -46.5t-47 -140.5z" />
<glyph unicode="&#xe4;" horiz-adv-x="985" d="M31 291q0 98 50 171t134 111.5t171 58t179 21.5v70q0 51 -22.5 86t-63.5 35q-94 0 -108 -135l-289 59q27 143 141.5 214t268.5 71q168 0 286.5 -78t118.5 -236v-573q0 -129 31 -166h-342q-4 16 -6 50t-5 44q-100 -119 -249 -119q-135 0 -215 83t-80 233zM164 1190v258 h258v-258h-258zM362 307q0 -111 97 -110q49 0 106 65v232q-109 -10 -156 -46.5t-47 -140.5zM563 1190v258h258v-258h-258z" />
<glyph unicode="&#xe5;" horiz-adv-x="985" d="M31 291q0 98 50 171t134 111.5t171 58t179 21.5v70q0 51 -22.5 86t-63.5 35q-94 0 -108 -135l-289 59q27 143 141.5 214t268.5 71q168 0 286.5 -78t118.5 -236v-573q0 -129 31 -166h-342q-4 16 -6 50t-5 44q-100 -119 -249 -119q-135 0 -215 83t-80 233zM274 1352 q0 90 64.5 154.5t155 64.5t155 -64.5t64.5 -154.5t-64.5 -154.5t-155 -64.5t-155 64.5t-64.5 154.5zM362 307q0 -111 97 -110q49 0 106 65v232q-109 -10 -156 -46.5t-47 -140.5zM385 1352q0 -45 32 -77t77 -32t76.5 32t31.5 77t-31.5 76.5t-76.5 31.5t-77 -31.5t-32 -76.5z " />
<glyph unicode="&#xe6;" horiz-adv-x="1402" d="M20 260q0 106 47.5 186t127 123t162.5 64.5t178 28.5v83q0 29 -2.5 45.5t-21.5 35t-54 18.5q-41 0 -74 -39t-33 -80l-268 47q47 281 381 281q190 0 264 -76q90 76 254 76q98 0 173 -38t117 -94.5t68.5 -134t34.5 -145.5t8 -141v-60h-538q8 -231 151 -231q100 0 154 135 l213 -84q-33 -106 -138.5 -195.5t-265.5 -89.5q-193 0 -311 154q-51 -76 -140 -115t-185 -39q-129 0 -215.5 84t-86.5 201zM352 303q0 -106 92 -106q33 0 70 28.5t57 59.5q-37 111 -36 204q-183 -14 -183 -186zM854 637h221q-2 115 -23.5 161t-93.5 46q-104 0 -104 -207z " />
<glyph unicode="&#xe7;" horiz-adv-x="948" d="M31 492q0 227 124 394t345 167q100 0 177 -33t119 -80t67.5 -107.5t33.5 -104.5t8 -83h-282q0 84 -17 129q-29 70 -96 70q-76 0 -99.5 -82t-23.5 -258q0 -170 28.5 -238.5t94.5 -68.5q127 0 127 196l258 -37q-35 -356 -369 -379l-73 -102l4 -4q41 18 90 18 q63 0 113.5 -46t50.5 -117q0 -186 -267 -187q-98 0 -219 45l35 86q102 -33 164 -32q39 0 70.5 25.5t31.5 60.5q0 31 -25.5 49t-56.5 18q-53 0 -92 -16l-59 41l110 168q-176 31 -274 177.5t-98 330.5z" />
<glyph unicode="&#xe8;" horiz-adv-x="948" d="M31 516q0 231 118.5 384t337.5 153q221 0 326 -158t105 -385v-70h-556q0 -244 150 -243q59 0 105.5 38.5t62.5 102.5l223 -82q-8 -29 -30.5 -65.5t-67.5 -90t-128 -89.5t-185 -36q-225 0 -343 156t-118 385zM139 1483h314l190 -295h-205zM362 637h248q0 45 -4 74.5 t-15 63.5t-38 51.5t-68 17.5q-66 0 -94.5 -61.5t-28.5 -145.5z" />
<glyph unicode="&#xe9;" horiz-adv-x="948" d="M31 516q0 231 118.5 384t337.5 153q221 0 326 -158t105 -385v-70h-556q0 -244 150 -243q59 0 105.5 38.5t62.5 102.5l223 -82q-8 -29 -30.5 -65.5t-67.5 -90t-128 -89.5t-185 -36q-225 0 -343 156t-118 385zM305 1188l191 295h313l-299 -295h-205zM362 637h248 q0 45 -4 74.5t-15 63.5t-38 51.5t-68 17.5q-66 0 -94.5 -61.5t-28.5 -145.5z" />
<glyph unicode="&#xea;" horiz-adv-x="948" d="M31 516q0 231 118.5 384t337.5 153q221 0 326 -158t105 -385v-70h-556q0 -244 150 -243q59 0 105.5 38.5t62.5 102.5l223 -82q-8 -29 -30.5 -65.5t-67.5 -90t-128 -89.5t-185 -36q-225 0 -343 156t-118 385zM113 1188l233 295h256l234 -295h-232l-131 164l-129 -164h-231 zM362 637h248q0 45 -4 74.5t-15 63.5t-38 51.5t-68 17.5q-66 0 -94.5 -61.5t-28.5 -145.5z" />
<glyph unicode="&#xeb;" horiz-adv-x="948" d="M31 516q0 231 118.5 384t337.5 153q221 0 326 -158t105 -385v-70h-556q0 -244 150 -243q59 0 105.5 38.5t62.5 102.5l223 -82q-8 -29 -30.5 -65.5t-67.5 -90t-128 -89.5t-185 -36q-225 0 -343 156t-118 385zM145 1190v258h258v-258h-258zM362 637h248q0 45 -4 74.5 t-15 63.5t-38 51.5t-68 17.5q-66 0 -94.5 -61.5t-28.5 -145.5zM545 1190v258h258v-258h-258z" />
<glyph unicode="&#xec;" horiz-adv-x="491" d="M-88 1483h313l191 -295h-205zM80 0v1028h332v-1028h-332z" />
<glyph unicode="&#xed;" horiz-adv-x="491" d="M78 1188l190 295h314l-299 -295h-205zM80 0v1028h332v-1028h-332z" />
<glyph unicode="&#xee;" horiz-adv-x="491" d="M-115 1188l234 295h256l233 -295h-231l-131 164l-129 -164h-232zM80 0v1028h332v-1028h-332z" />
<glyph unicode="&#xef;" horiz-adv-x="491" d="M-82 1190v258h258v-258h-258zM80 0v1028h332v-1028h-332zM317 1190v258h258v-258h-258z" />
<glyph unicode="&#xf0;" horiz-adv-x="987" d="M31 518q0 199 104.5 344.5t294.5 145.5q84 0 150 -41q-31 158 -150 272l-178 -121l-109 113l158 104q-104 63 -184 86l209 185q176 -78 231 -119l180 119l119 -115l-184 -111q162 -158 223 -336t61 -436q0 -633 -462 -633q-229 0 -346 146.5t-117 396.5zM375 518 q0 -188 27.5 -261t91 -73t91 73t27.5 261q0 66 -3 109t-14 86t-37 64.5t-64.5 21.5t-64.5 -21.5t-37 -64.5t-14 -86t-3 -109z" />
<glyph unicode="&#xf1;" d="M88 0v1028h332v-137h4q109 162 293 162q100 0 159.5 -62.5t59.5 -169.5v-821h-332v727q0 92 -80 92q-53 0 -86 -43l-18 -24v-752h-332zM137 1198q18 102 80 176t158 74q61 0 156.5 -39t123.5 -39q86 0 99 86h135q-43 -258 -215 -258q-55 0 -167 39t-147 39 q-31 0 -57.5 -25.5t-30.5 -52.5h-135z" />
<glyph unicode="&#xf2;" horiz-adv-x="987" d="M31 518q0 240 118.5 387.5t344 147.5t344 -147.5t118.5 -387.5q0 -250 -116.5 -396.5t-346 -146.5t-346 146.5t-116.5 396.5zM160 1483h313l191 -295h-205zM375 518q0 -188 27.5 -261t91 -73t91 73t27.5 261q0 182 -24.5 254t-94 72t-94 -72t-24.5 -254z" />
<glyph unicode="&#xf3;" horiz-adv-x="987" d="M31 518q0 240 118.5 387.5t344 147.5t344 -147.5t118.5 -387.5q0 -250 -116.5 -396.5t-346 -146.5t-346 146.5t-116.5 396.5zM326 1188l190 295h313l-299 -295h-204zM375 518q0 -188 27.5 -261t91 -73t91 73t27.5 261q0 182 -24.5 254t-94 72t-94 -72t-24.5 -254z" />
<glyph unicode="&#xf4;" horiz-adv-x="987" d="M31 518q0 240 118.5 387.5t344 147.5t344 -147.5t118.5 -387.5q0 -250 -116.5 -396.5t-346 -146.5t-346 146.5t-116.5 396.5zM133 1188l234 295h256l233 -295h-231l-131 164l-129 -164h-232zM375 518q0 -188 27.5 -261t91 -73t91 73t27.5 261q0 182 -24.5 254t-94 72 t-94 -72t-24.5 -254z" />
<glyph unicode="&#xf5;" horiz-adv-x="987" d="M31 518q0 240 118.5 387.5t344 147.5t344 -147.5t118.5 -387.5q0 -250 -116.5 -396.5t-346 -146.5t-346 146.5t-116.5 396.5zM119 1198q18 102 79.5 176t157.5 74q61 0 156.5 -39t124.5 -39q86 0 98 86h135q-43 -258 -215 -258q-55 0 -166.5 39t-146.5 39 q-31 0 -57.5 -25.5t-30.5 -52.5h-135zM375 518q0 -188 27.5 -261t91 -73t91 73t27.5 261q0 182 -24.5 254t-94 72t-94 -72t-24.5 -254z" />
<glyph unicode="&#xf6;" horiz-adv-x="987" d="M31 518q0 240 118.5 387.5t344 147.5t344 -147.5t118.5 -387.5q0 -250 -116.5 -396.5t-346 -146.5t-346 146.5t-116.5 396.5zM166 1190v258h258v-258h-258zM375 518q0 -188 27.5 -261t91 -73t91 73t27.5 261q0 182 -24.5 254t-94 72t-94 -72t-24.5 -254zM565 1190v258 h258v-258h-258z" />
<glyph unicode="&#xf7;" horiz-adv-x="1228" d="M96 395v246h1037v-246h-1037zM430 88q0 76 53.5 130t131 54t131 -54t53.5 -130t-53.5 -130t-131 -54t-131 54t-53.5 130zM430 948q0 76 53.5 130.5t131 54.5t131 -54.5t53.5 -130.5t-53.5 -130t-131 -54t-131 54t-53.5 130z" />
<glyph unicode="&#xf8;" horiz-adv-x="987" d="M2 29l117 135q-88 131 -88 354q0 240 118.5 387.5t344.5 147.5q184 0 303 -109l98 113l90 -76l-113 -129q84 -131 84 -334q0 -250 -116.5 -396.5t-345.5 -146.5q-186 0 -299 101l-107 -121zM375 518q0 -45 2 -57l223 256q-10 70 -34.5 98.5t-71.5 28.5q-70 0 -94.5 -72 t-24.5 -254zM391 301q25 -117 103 -117q63 0 89.5 72t26.5 262v35z" />
<glyph unicode="&#xf9;" d="M88 207v821h332v-727q0 -92 80 -92q53 0 86 43l18 24v752h332v-1028h-332v137h-4q-109 -162 -293 -162q-100 0 -159.5 63t-59.5 169zM178 1483h314l190 -295h-205z" />
<glyph unicode="&#xfa;" d="M88 207v821h332v-727q0 -92 80 -92q53 0 86 43l18 24v752h332v-1028h-332v137h-4q-109 -162 -293 -162q-100 0 -159.5 63t-59.5 169zM344 1188l191 295h313l-299 -295h-205z" />
<glyph unicode="&#xfb;" d="M88 207v821h332v-727q0 -92 80 -92q53 0 86 43l18 24v752h332v-1028h-332v137h-4q-109 -162 -293 -162q-100 0 -159.5 63t-59.5 169zM152 1188l233 295h256l233 -295h-231l-131 164l-129 -164h-231z" />
<glyph unicode="&#xfc;" d="M88 207v821h332v-727q0 -92 80 -92q53 0 86 43l18 24v752h332v-1028h-332v137h-4q-109 -162 -293 -162q-100 0 -159.5 63t-59.5 169zM184 1190v258h258v-258h-258zM584 1190v258h258v-258h-258z" />
<glyph unicode="&#xfd;" horiz-adv-x="835" d="M-16 1028h342l120 -596h5l141 596h260l-346 -1061q-49 -152 -153.5 -213t-264.5 -61q-33 0 -98 8v236q47 -10 88 -11q186 0 186 123q0 47 -14 92zM311 1188l191 295h313l-299 -295h-205z" />
<glyph unicode="&#xfe;" d="M104 -307v1765h320v-538h4q98 121 234 120q154 0 242.5 -128t88.5 -359q0 -106 -16 -198.5t-54 -175.5t-110 -131t-172 -48q-115 0 -205 90v-397h-332zM436 223q41 -39 103 -39q39 0 62.5 19.5t33.5 69t12 93.5t2 130q0 209 -15.5 284.5t-78.5 75.5q-39 0 -74 -25.5 t-45 -56.5v-551z" />
<glyph unicode="&#xff;" horiz-adv-x="835" d="M-16 1028h342l120 -596h5l141 596h260l-346 -1061q-49 -152 -153.5 -213t-264.5 -61q-33 0 -98 8v236q47 -10 88 -11q186 0 186 123q0 47 -14 92zM90 1190v258h258v-258h-258zM489 1190v258h259v-258h-259z" />
<glyph unicode="&#x152;" horiz-adv-x="1593" d="M20 692.5q0 147.5 26 277.5t84 251.5t171 193.5t268 72q37 0 107 -12q92 -16 100 -17h805v-282h-489v-295h321v-283h-321v-303h489v-295h-829q-12 0 -88 -14.5t-107 -14.5q-141 0 -247.5 58.5t-168 162t-91.5 228.5t-30 272.5zM418 634q0 -30 2 -82t6 -82t11 -72 t18.5 -65.5t27 -47t38 -33.5t50.5 -10q31 0 54.5 12t40 38.5t29 54.5t20.5 75t12 82t6 94t2 93v97q0 53 -1 86t-5 91.5t-13 95.5t-25.5 77t-44.5 59.5t-64 19.5q-39 0 -69 -21.5t-47 -67t-27.5 -86.5t-14.5 -109.5t-5 -106.5t-1 -105v-87z" />
<glyph unicode="&#x153;" horiz-adv-x="1441" d="M20 516q0 242 118 389.5t339 147.5q178 0 279 -103q94 102 262 103q98 0 173 -38t118 -94.5t69.5 -134t34.5 -145.5t8 -141v-60h-524q0 -244 147 -243q106 0 154 147l213 -84q-33 -113 -128 -199t-263 -86t-275 93q-47 -47 -124.5 -70t-143.5 -23q-229 0 -343 143.5 t-114 397.5zM365 516q0 -186 25.5 -259t82.5 -73q55 0 81 73t26 259q0 188 -21.5 258t-81 70t-86 -73t-26.5 -255zM911 637h203q0 43 -2 68.5t-11 63.5t-34 56.5t-63 18.5q-33 0 -53.5 -19.5t-28 -57.5t-9.5 -62.5t-2 -67.5z" />
<glyph unicode="&#x178;" horiz-adv-x="1099" d="M-18 1458h385l192 -573l232 573h327l-403 -870v-588h-369v567zM221 1608v258h258v-258h-258zM621 1608v258h258v-258h-258z" />
<glyph unicode="&#x2c6;" horiz-adv-x="493" d="M-115 1139l234 295h256l233 -295h-231l-131 164l-129 -164h-232z" />
<glyph unicode="&#x2dc;" horiz-adv-x="493" d="M-129 1149q18 102 79.5 176t158.5 74q61 0 156 -39t124 -39q86 0 98 86h136q-43 -258 -215 -258q-55 0 -167 39t-147 39q-31 0 -57.5 -25.5t-30.5 -52.5h-135z" />
<glyph unicode="&#x2000;" horiz-adv-x="987" />
<glyph unicode="&#x2001;" horiz-adv-x="1976" />
<glyph unicode="&#x2002;" horiz-adv-x="987" />
<glyph unicode="&#x2003;" horiz-adv-x="1976" />
<glyph unicode="&#x2004;" horiz-adv-x="657" />
<glyph unicode="&#x2005;" horiz-adv-x="493" />
<glyph unicode="&#x2006;" horiz-adv-x="327" />
<glyph unicode="&#x2007;" horiz-adv-x="327" />
<glyph unicode="&#x2008;" horiz-adv-x="245" />
<glyph unicode="&#x2009;" horiz-adv-x="395" />
<glyph unicode="&#x200a;" horiz-adv-x="108" />
<glyph unicode="&#x2010;" horiz-adv-x="606" d="M57 389v283h492v-283h-492z" />
<glyph unicode="&#x2011;" horiz-adv-x="606" d="M57 389v283h492v-283h-492z" />
<glyph unicode="&#x2012;" horiz-adv-x="606" d="M57 389v283h492v-283h-492z" />
<glyph unicode="&#x2013;" d="M0 395v271h1024v-271h-1024z" />
<glyph unicode="&#x2014;" horiz-adv-x="2048" d="M0 395v271h2048v-271h-2048z" />
<glyph unicode="&#x2018;" horiz-adv-x="548" d="M96 772v311l205 375h186l-161 -330h127v-356h-357z" />
<glyph unicode="&#x2019;" horiz-adv-x="548" d="M61 772l162 330h-127v356h357v-311l-205 -375h-187z" />
<glyph unicode="&#x201a;" horiz-adv-x="548" d="M61 -330l162 330h-127v356h357v-311l-205 -375h-187z" />
<glyph unicode="&#x201c;" horiz-adv-x="1062" d="M96 772v311l205 375h186l-161 -330h127v-356h-357zM610 772v311l205 375h186l-161 -330h127v-356h-357z" />
<glyph unicode="&#x201d;" horiz-adv-x="1062" d="M61 772l162 330h-127v356h357v-311l-205 -375h-187zM575 772l162 330h-127v356h357v-311l-205 -375h-187z" />
<glyph unicode="&#x201e;" horiz-adv-x="1062" d="M61 -330l162 330h-127v356h357v-311l-205 -375h-187zM575 -330l162 330h-127v356h357v-311l-205 -375h-187z" />
<glyph unicode="&#x2022;" d="M147 729.5q0 151.5 106.5 258t258.5 106.5t258.5 -106.5t106.5 -258t-106.5 -258t-258.5 -106.5t-258.5 106.5t-106.5 258z" />
<glyph unicode="&#x2026;" horiz-adv-x="2048" d="M164 0v356h356v-356h-356zM846 0v356h356v-356h-356zM1528 0v356h356v-356h-356z" />
<glyph unicode="&#x202f;" horiz-adv-x="395" />
<glyph unicode="&#x2039;" horiz-adv-x="606" d="M4 530l453 435l145 -146l-299 -289l299 -288l-145 -146z" />
<glyph unicode="&#x203a;" horiz-adv-x="606" d="M4 242l299 288l-299 289l146 146l452 -435l-452 -434z" />
<glyph unicode="&#x205f;" horiz-adv-x="493" />
<glyph unicode="&#x20ac;" horiz-adv-x="1097" d="M31 475l63 189h78q-2 16 -2 61q0 37 2 55h-141l63 187h92q80 510 525 510q195 0 295 -70v-281q-72 84 -236 84q-217 0 -252 -243h426l-61 -187h-385v-53q0 -47 2 -63h342l-62 -189h-260q37 -229 252 -229q154 0 234 76v-279q-84 -61 -295 -61q-449 0 -521 493h-159z" />
<glyph unicode="&#x2122;" horiz-adv-x="2048" d="M33 1274v184h704v-184h-229v-660h-246v660h-229zM930 614v844h319l183 -489l182 489h319v-844h-221v549h-4l-186 -549h-181l-186 549h-4v-549h-221z" />
<glyph unicode="&#xe000;" horiz-adv-x="1030" d="M0 1030h1030v-1030h-1030v1030z" />
<glyph unicode="&#xfb01;" horiz-adv-x="1099" d="M-20 795v233h135v115q0 182 87 263t257 81q61 0 168 -12v-254q-37 8 -62 8q-119 0 -119 -88v-113h181v-233h-181v-795h-331v795h-135zM688 0v1028h332v-1028h-332zM688 1163v295h332v-295h-332z" />
<glyph unicode="&#xfb02;" horiz-adv-x="1099" d="M-20 795v233h135v115q0 182 87 263t257 81q61 0 168 -12v-254q-37 8 -62 8q-119 0 -119 -88v-113h181v-233h-181v-795h-331v795h-135zM688 0v1458h332v-1458h-332z" />
<glyph unicode="&#xfb03;" horiz-adv-x="1703" d="M1292 0v1028h332v-1028h-332zM1292 1163v295h332v-295h-332zM586 795v233h135v115q0 182 87 263t257 81q61 0 168 -12v-254q-37 8 -62 8q-119 0 -119 -88v-113h181v-233h-181v-795h-331v795h-135zM-20 795v233h135v115q0 182 87 263t257 81q61 0 168 -12v-254 q-37 8 -62 8q-119 0 -119 -88v-113h181v-233h-181v-795h-331v795h-135z" />
<glyph unicode="&#xfb04;" horiz-adv-x="1703" d="M1292 0v1458h332v-1458h-332zM586 795v233h135v115q0 182 87 263t257 81q61 0 168 -12v-254q-37 8 -62 8q-119 0 -119 -88v-113h181v-233h-181v-795h-331v795h-135zM-20 795v233h135v115q0 182 87 263t257 81q61 0 168 -12v-254q-37 8 -62 8q-119 0 -119 -88v-113h181 v-233h-181v-795h-331v795h-135z" />
</font>
</defs>
</svg>
