<?xml version="1.0" standalone="no"?>
<!DOCTYPE svg PUBLIC "-//W3C//DTD SVG 1.1//EN" "http://www.w3.org/Graphics/SVG/1.1/DTD/svg11.dtd" >
<svg xmlns="http://www.w3.org/2000/svg">
<metadata>
This is a custom SVG webfont generated by Font Squirrel.
Copyright   :  1986 1992 1995 2001 2002 Adobe Systems Incorporated All rights reserved
Designer    : Vic Caruso
Foundry URL : httpwwwadobecomtype
</metadata>
<defs>
<font id="ITCFranklinGothicStdHeavy" horiz-adv-x="1228" >
<font-face units-per-em="2048" ascent="1405" descent="-643" />
<missing-glyph horiz-adv-x="614" />
<glyph unicode=" "  horiz-adv-x="614" />
<glyph unicode="&#x09;" horiz-adv-x="614" />
<glyph unicode="&#xa0;" horiz-adv-x="614" />
<glyph unicode="!" horiz-adv-x="655" d="M84 1405h487l-116 -932h-260zM133 0v375h391v-375h-391z" />
<glyph unicode="&#x22;" horiz-adv-x="1064" d="M166 1104v301h317v-301l-96 -293h-125zM582 1104v301h317v-301l-98 -293h-123z" />
<glyph unicode="#" d="M-6 340v219h252l57 248h-217v221h260l88 397h244l-90 -397h225l88 397h240l-92 -397h186v-221h-225l-54 -248h213v-219h-268l-74 -340h-237l74 340h-230l-72 -340h-239l72 340h-201zM483 557h232l57 248h-233z" />
<glyph unicode="$" d="M47 434l361 68q45 -158 229 -158q150 0 149 80q0 27 -13 47.5t-43 31.5t-46 15t-51 12q-92 18 -150.5 34t-136.5 48.5t-123 74.5t-77.5 110.5t-32.5 158.5q0 172 114.5 285t288.5 133v174h197v-170h4q332 -41 430 -317l-322 -100q-49 131 -202 131q-127 0 -127 -84 q0 -14 4 -25.5t15 -20t19.5 -14.5t27 -12t25.5 -8t27.5 -7.5t22.5 -5.5q10 -2 70.5 -14t83 -18t68.5 -18.5t80 -27t65 -32.5q178 -104 178 -328q0 -188 -133.5 -299.5t-331.5 -134.5l-4 -2v-178h-197v180q-174 16 -302 119.5t-167 271.5z" />
<glyph unicode="%" horiz-adv-x="1515" d="M72 1038q0 154 70.5 260.5t213.5 106.5q145 0 216 -106.5t71 -260.5q0 -150 -72.5 -253t-214 -103t-213 104.5t-71.5 251.5zM231 0l859 1405h190l-854 -1405h-195zM287 1057q0 -92 9 -142.5t22.5 -64.5t35.5 -14q39 0 57.5 44t18.5 160.5t-16.5 164.5t-55.5 48 q-71 1 -71 -196zM870 356q0 154 71 260.5t214 106.5q145 0 216 -106.5t71 -260.5q0 -147 -73 -251.5t-214 -104.5t-213 104.5t-72 251.5zM1085 375q0 -92 9.5 -142.5t22.5 -64.5t36 -14q39 0 57.5 44t18.5 160.5t-16.5 164.5t-55.5 48q-72 1 -72 -196z" />
<glyph unicode="&#x26;" horiz-adv-x="1597" d="M57 412q0 270 326 387q-115 147 -115 274q0 125 71 207t171 113.5t221 31.5q182 0 312.5 -85t130.5 -259q0 -125 -73 -215t-194 -131l144 -151q70 68 106 237l365 -43q-63 -281 -232 -434q47 -39 140 -39q37 0 92 6v-303q-84 -23 -166 -22q-188 0 -332 112 q-66 -61 -178.5 -89.5t-222.5 -28.5q-145 0 -268.5 40.5t-210.5 142.5t-87 249zM471 438q0 -76 50 -115.5t128 -39.5q100 0 158 57l-234 256q-102 -45 -102 -158zM641 1083q0 -63 102 -145q45 14 74 49t29 82t-30 76t-77 29q-41 0 -69.5 -25t-28.5 -66z" />
<glyph unicode="'" horiz-adv-x="614" d="M147 1104v301h318v-301l-96 -293h-125z" />
<glyph unicode="(" horiz-adv-x="778" d="M92 543q0 238 84 460t242 402h276q-266 -385 -266 -866q0 -213 59 -422q35 -121 75 -206t114 -208l18 -33h-276l-15 17q-162 227 -225 393q-86 232 -86 463z" />
<glyph unicode=")" horiz-adv-x="778" d="M80 -330l18 33q74 123 114 208t75 206q59 209 59 422q0 481 -266 866h276q158 -180 242 -402.5t84 -459.5q0 -231 -86 -463q-63 -166 -225 -393l-15 -17h-276z" />
<glyph unicode="*" d="M150 989l79 225l287 -122l-27 313h246l-30 -313l303 122l71 -225l-307 -71l205 -232l-205 -143l-162 268l-159 -268l-205 143l205 232z" />
<glyph unicode="+" d="M90 436v307h371v371h307v-371h371v-307h-371v-370h-307v370h-371z" />
<glyph unicode="," horiz-adv-x="614" d="M113 0v373h387v-344l-226 -389h-161l161 360h-161z" />
<glyph unicode="-" horiz-adv-x="532" d="M0 401v324h520v-324h-520z" />
<glyph unicode="." horiz-adv-x="614" d="M113 0v375h391v-375h-391z" />
<glyph unicode="/" d="M-113 -350l1004 1755h268l-1001 -1755h-271z" />
<glyph unicode="0" d="M55 692q0 141 30 265t92.5 232.5t175 172t262 63.5t262 -63.5t175 -172t92.5 -232t30 -265.5q0 -135 -32 -259t-96.5 -227.5t-175 -164.5t-256 -61t-256 61t-175 164.5t-96.5 227.5t-32 259zM461 690q0 -113 11 -194.5t26.5 -122.5t39 -64.5t40 -29t36.5 -5.5 q23 0 37.5 3.5t39 26t39.5 63.5t26.5 123.5t11.5 199.5q0 240 -35 340t-119 100q-33 0 -54 -11t-47 -51t-39 -134t-13 -244z" />
<glyph unicode="1" d="M76 0v313h346v668l-16 -8q-188 -82 -293 -96v317q305 68 405 231h305v-1112h332v-313h-1079z" />
<glyph unicode="2" d="M61 0v322l478 358q61 51 90.5 81t63.5 87t34 115q0 63 -37 105t-100 42q-160 0 -174 -244l-355 70q29 225 180.5 357t379.5 132q223 0 370.5 -118.5t147.5 -335.5q0 -203 -181 -363l-325 -243l-33 -21h547l-17 -344h-1069z" />
<glyph unicode="3" d="M16 428l367 47q10 -86 65.5 -139t141.5 -53q74 0 124 37.5t50 109.5q0 74 -68 121q-31 20 -145 20h-143v295h116q109 0 140 15q68 33 67 110q0 61 -43 96t-106 35q-70 0 -117 -45t-57 -116l-340 55q45 199 195.5 304t361.5 105q186 0 325 -79q80 -49 129 -132.5 t49 -177.5q0 -106 -55 -189t-153 -114q252 -76 251 -330q0 -113 -48 -197.5t-130 -132.5t-177 -70.5t-202 -22.5q-236 0 -390.5 111.5t-207.5 336.5z" />
<glyph unicode="4" d="M35 309v303l528 813h432v-813h199v-303h-199v-309h-387v309h-573zM342 612h266v422z" />
<glyph unicode="5" d="M27 410l362 45q14 -74 69.5 -114t131.5 -40q72 0 120 47t48 121q0 78 -49.5 125t-126.5 47q-111 0 -164 -88l-324 45l62 807h938l-37 -346h-588l-18 -199q115 78 254 78q86 0 174 -35t149 -92q133 -131 133 -334q0 -229 -163.5 -363t-397.5 -134q-217 0 -377.5 111.5 t-195.5 318.5z" />
<glyph unicode="6" d="M53 668q0 145 32 275t98.5 240.5t182 176t269.5 65.5q203 0 341 -110.5t163 -306.5l-359 -43q-16 168 -139 168q-170 0 -176 -365q84 129 283 129q193 0 310.5 -122t117.5 -314q0 -219 -158 -350t-381 -131q-287 0 -435.5 196.5t-148.5 491.5zM469 432q0 -72 44 -120 t116 -48q68 0 109.5 49t41.5 117q0 70 -41 121t-108 51q-72 0 -117 -49t-45 -121z" />
<glyph unicode="7" d="M94 1053l31 352h1010v-264q-168 -209 -270.5 -499t-102.5 -558l4 -84h-465q8 285 127 558t317 495h-651z" />
<glyph unicode="8" d="M41 369q0 225 221 317q-176 96 -176 307q0 96 44 183.5t120 142.5q145 106 377 106q125 0 236.5 -34.5t194.5 -121.5t83 -216q0 -100 -44 -164t-136 -125q227 -117 227 -342q0 -121 -51.5 -210t-139.5 -137t-188 -71.5t-215 -23.5q-221 0 -358 75q-195 103 -195 314z M408 401q0 -78 62 -114.5t146 -36.5q66 0 117 25.5t51 82.5q0 37 -25.5 66t-51 42t-66.5 30l-135 51q-98 -58 -98 -146zM465 1042q0 -35 22.5 -61.5t44 -38.5t60.5 -29l104 -43q88 41 88 131q0 72 -54 110t-128 38q-57 0 -97 -27t-40 -80z" />
<glyph unicode="9" d="M57 944q0 227 155 354t386 127q152 0 265.5 -55t179 -152.5t97 -219t31.5 -267.5q0 -295 -124 -502q-150 -250 -476 -249q-190 0 -319 96t-158 278l361 58q8 -55 42.5 -92t88.5 -37q74 0 118 55t56 117.5t12 136.5l-2 41q-90 -135 -268 -135q-197 0 -321 124.5 t-124 321.5zM449 965q0 -70 35.5 -120t103.5 -50q76 0 119 47t43 123q0 74 -41 124t-111 50q-72 0 -110.5 -50t-38.5 -124z" />
<glyph unicode=":" horiz-adv-x="614" d="M113 0v375h391v-375h-391zM113 672v375h391v-375h-391z" />
<glyph unicode=";" horiz-adv-x="614" d="M113 672v375h391v-375h-391zM115 0v373h387v-344l-226 -389h-161l161 360h-161z" />
<glyph unicode="&#x3c;" d="M92 430v326l1043 403v-340l-611 -229l611 -221v-340z" />
<glyph unicode="=" d="M90 188v308h1049v-308h-1049zM90 684v307h1049v-307h-1049z" />
<glyph unicode="&#x3e;" d="M92 29v340l610 221l-610 229v340l1043 -403v-326z" />
<glyph unicode="?" d="M78 944q84 481 561 481q217 0 365.5 -115.5t148.5 -326.5q0 -127 -56.5 -204t-178.5 -167q-2 -2 -15.5 -11t-17.5 -12l-17 -12q-12 -9 -16 -14.5t-13.5 -14.5t-13.5 -16.5t-10 -17.5t-9 -20.5t-6 -22.5t-3 -25h-342v29q2 113 20.5 166t91.5 119q57 51 81 73.5t49.5 70.5 t25.5 103.5t-30.5 93.5t-86.5 38q-141 0 -149 -211l-2 -27zM444 0v375h392v-375h-392z" />
<glyph unicode="@" horiz-adv-x="1638" d="M125 705q0 305 211 512.5t516 207.5q262 0 448 -159q213 -178 213 -424q0 -154 -56 -269.5t-138 -174t-154.5 -86t-128.5 -27.5q-49 0 -80.5 24.5t-29.5 71.5q-82 -88 -187 -88q-127 0 -223 99.5t-96 236.5q0 178 108.5 309t280.5 131q156 0 217 -96l18 82h199l-94 -559 q-8 -53 2 -64q6 -4 20 -4q55 0 110.5 102.5t55.5 247.5q0 225 -132 341t-359 116q-238 0 -374 -145.5t-136 -384.5q0 -252 147.5 -392.5t395.5 -140.5q199 0 327 82l115 -100q-211 -174 -457 -174q-311 0 -525 207t-214 518zM672 662q0 -59 33.5 -100.5t91.5 -41.5 q72 0 118 54.5t46 127.5q0 59 -35 98.5t-95 39.5q-68 0 -113.5 -54t-45.5 -124z" />
<glyph unicode="A" horiz-adv-x="1351" d="M18 0l437 1405h454l441 -1405h-441l-80 276h-374l-86 -276h-351zM526 584h230l-115 407z" />
<glyph unicode="B" horiz-adv-x="1351" d="M111 0v1405h686q203 0 303 -72q70 -51 109.5 -131t39.5 -166q0 -111 -65.5 -195.5t-171.5 -109.5v-4q123 -23 197.5 -109t74.5 -210q0 -98 -36 -187.5t-107 -140.5q-111 -80 -387 -80h-643zM506 313h186q92 0 125 27q51 37 51 98q0 78 -67 111q-37 18 -125 18h-170v-254z M506 866h174q92 0 121 27q41 37 41 92q0 119 -168 119h-168v-238z" />
<glyph unicode="C" horiz-adv-x="1351" d="M47 684q0 326 161 533.5t476 207.5q266 0 417.5 -148.5t174.5 -414.5l-402 -20q0 9 1 17q0 94 -41 169q-45 82 -146 82q-199 0 -199 -426q0 -72 5.5 -123t23 -117.5t62.5 -103.5t112 -37q92 0 138.5 67.5t52.5 166.5l393 -25q-20 -242 -181 -387t-405 -145 q-307 0 -475 196.5t-168 507.5z" />
<glyph unicode="D" horiz-adv-x="1392" d="M109 0v1405h518q170 0 289.5 -35t226.5 -137q215 -203 215 -533q0 -141 -50.5 -276t-144.5 -234q-182 -190 -508 -190h-546zM541 324h61q102 0 148 24q57 33 92 92q66 109 65 271q0 182 -86 295q-33 39 -72.5 57t-65.5 20t-93 2h-49v-761z" />
<glyph unicode="E" d="M106 0v1405h1055v-324h-633v-204h512v-314h-512v-227h633v-336h-1055z" />
<glyph unicode="F" horiz-adv-x="1105" d="M109 0v1405h1015v-334h-596v-229h457v-316h-457v-526h-419z" />
<glyph unicode="G" horiz-adv-x="1392" d="M47 680q0 317 164 522q176 223 510 223q246 0 402.5 -123.5t201.5 -363.5l-418 -43q-33 219 -194 219q-211 0 -211 -409q0 -176 37 -259q57 -135 192 -135q84 0 138.5 48.5t54.5 129.5h-232v297h633v-786h-211l-57 147q-125 -168 -381 -167q-297 0 -463 199.5t-166 500.5 z" />
<glyph unicode="H" horiz-adv-x="1392" d="M106 0v1405h431v-518h331v518h430v-1405h-430v547h-331v-547h-431z" />
<glyph unicode="I" horiz-adv-x="655" d="M117 0v1405h434v-1405h-434z" />
<glyph unicode="J" horiz-adv-x="901" d="M45 12v336q86 -27 168 -26q96 0 137 51q35 45 35 172v860h414v-860q0 -102 -2 -150.5t-21.5 -131.5t-58.5 -136q-111 -147 -385 -147q-162 -1 -287 32z" />
<glyph unicode="K" horiz-adv-x="1351" d="M104 0v1405h406v-580l389 580h387l-354 -514l440 -891h-473l-242 530l-147 -204v-326h-406z" />
<glyph unicode="L" horiz-adv-x="1105" d="M121 0v1405h434v-1061h551v-344h-985z" />
<glyph unicode="M" horiz-adv-x="1761" d="M115 0v1405h563l201 -746h4l192 746h567v-1405h-401v1004h-4l-256 -1004h-274l-265 1004h-4v-1004h-323z" />
<glyph unicode="N" horiz-adv-x="1433" d="M119 0v1405h407l471 -784l4 4l-30 389v391h350v-1405h-352l-404 657l-125 254l-4 -4l4 -16q29 -127 29 -236v-655h-350z" />
<glyph unicode="O" horiz-adv-x="1433" d="M51 698q0 324 179.5 525.5t492.5 201.5t492.5 -201.5t179.5 -525.5q0 -309 -180.5 -513.5t-491.5 -204.5t-491.5 204.5t-180.5 513.5zM512 696q0 -395 211 -395t211 395q0 66 -7 125.5t-26.5 130t-64.5 113.5t-113 43t-113 -43t-64.5 -113.5t-26.5 -130t-7 -125.5z" />
<glyph unicode="P" horiz-adv-x="1351" d="M106 0v1405h574q285 0 412 -74q98 -57 153 -155.5t55 -212.5q0 -219 -155 -345q-133 -109 -383 -108h-219v-510h-437zM543 811h112q47 0 77 3t67 15.5t55 42t18 76.5q0 84 -55 109.5t-149 25.5h-125v-272z" />
<glyph unicode="Q" horiz-adv-x="1433" d="M47 696q0 311 172 512q184 217 504 217q315 0 492.5 -204.5t177.5 -526.5q0 -172 -64.5 -326.5t-193.5 -238.5q12 -72 135 -72q53 0 112 17v-320q-84 -10 -170 -10q-147 0 -231 59.5t-117 198.5q-47 -14 -90 -16q-43 -6 -90 -6q-293 0 -465 208.5t-172 507.5zM514 643 q0 -10 2 -64.5t7 -72t14.5 -60.5t25 -61t37 -43t54 -34t71.5 -9q47 0 83 16.5t57.5 49t34.5 63.5t18.5 81t6.5 81t1 80q0 174 -27 282q-41 156 -180 156q-43 0 -78 -16.5t-55.5 -36t-35.5 -60.5t-21.5 -65.5t-10.5 -78.5t-4 -73v-71v-64z" />
<glyph unicode="R" horiz-adv-x="1392" d="M104 0v1405h715q233 0 363 -86q172 -109 172 -336q0 -135 -60.5 -224t-187.5 -147l254 -612h-479l-205 537h-135v-537h-437zM541 838h157q207 0 207 135q0 80 -67 114q-37 18 -123 19h-174v-268z" />
<glyph unicode="S" horiz-adv-x="1351" d="M25 408l399 71q49 -170 256 -170q166 0 166 86q0 25 -13.5 44.5t-26.5 29.5t-46 20.5t-42 12.5t-44 8q-100 20 -164 35.5t-152 51.5t-138 80t-87 118.5t-37 171.5q0 104 48.5 198.5t131.5 153.5q154 106 404 106q197 0 350.5 -85t214.5 -259l-356 -108q-55 141 -227 141 q-139 0 -140 -90q0 -14 5 -27.5t17.5 -22.5t20.5 -16.5t29.5 -13.5t28 -8t30.5 -6l25 -6q12 -2 56 -11.5t60.5 -12.5t55.5 -11t61.5 -15.5t53 -16.5t58.5 -21.5t52 -24.5q209 -113 209 -358q0 -121 -56.5 -215.5t-148.5 -148.5t-199.5 -81.5t-222.5 -27.5 q-238 0 -408.5 105.5t-223.5 322.5z" />
<glyph unicode="T" horiz-adv-x="1024" d="M12 1067v338h994v-338h-289v-1067h-410v1067h-295z" />
<glyph unicode="U" horiz-adv-x="1351" d="M90 479v926h438v-877q0 -115 27 -153q47 -63 154 -64q94 0 147 47q10 8 18.5 19.5t13.5 20t8 23.5t5 22.5t3 26.5t1 25v25v25v860h338v-903q0 -141 -29.5 -234.5t-123.5 -169.5q-152 -119 -416 -118q-254 0 -406 100q-104 70 -141 164t-37 235z" />
<glyph unicode="V" horiz-adv-x="1351" d="M20 1405h453l262 -899l260 899h355l-437 -1405h-440z" />
<glyph unicode="W" horiz-adv-x="1884" d="M14 1405h406l194 -811h4l191 811h338l207 -811h4l194 811h330l-373 -1405h-362l-195 774h-4l-182 -774h-377z" />
<glyph unicode="X" horiz-adv-x="1433" d="M12 0l453 727l-434 678h501l220 -379l225 379h387l-408 -653l471 -752h-499l-260 442l-260 -442h-396z" />
<glyph unicode="Y" horiz-adv-x="1351" d="M2 1405h473l246 -463l235 463h377l-440 -811v-594h-418v594z" />
<glyph unicode="Z" d="M31 0v268l622 811h-575v326h1102v-272l-605 -801h623v-332h-1167z" />
<glyph unicode="[" horiz-adv-x="778" d="M129 -330v1735h485v-170h-180v-1395h180v-170h-485z" />
<glyph unicode="\" d="M70 1405h270l1001 -1755h-268z" />
<glyph unicode="]" horiz-adv-x="778" d="M158 -160h180v1395h-180v170h485v-1735h-485v170z" />
<glyph unicode="^" d="M47 535l412 870h303l418 -870h-349l-219 509l-215 -509h-350z" />
<glyph unicode="_" horiz-adv-x="1024" d="M0 -154h1024v-102h-1024v102z" />
<glyph unicode="`" horiz-adv-x="819" d="M137 1307l70 200l475 -200l-53 -140z" />
<glyph unicode="a" horiz-adv-x="1187" d="M41 295q0 117 78 201t196 120q166 51 412 66v8q0 74 -25.5 102.5t-97.5 28.5q-143 0 -160 -116l-372 34q78 328 544 328q258 0 383 -90q25 -18 44.5 -40t33 -39t21.5 -46t13 -44t7 -52t2 -50v-56v-54v-367q0 -152 33 -229h-391q-14 66 -14 145q-113 -166 -342 -165 q-156 0 -260.5 82.5t-104.5 232.5zM465 322q0 -96 106 -97q45 0 76 15.5t46.5 36t23.5 58.5t9 63.5t1 70.5v20q-262 -26 -262 -167z" />
<glyph unicode="b" horiz-adv-x="1187" d="M86 0v1405h406v-483h6q78 145 268 145q137 0 230.5 -83t128 -197.5t34.5 -249.5q0 -240 -110.5 -398.5t-339.5 -158.5q-221 0 -336 163q-29 -53 -56 -143h-231zM494 416q0 -182 116 -183q29 0 51.5 12.5t37 27t23.5 44t14 48t7 56.5t2 50v49v59q0 13 -3 58t-12 65.5 t-23.5 50t-40 42t-60.5 12.5q-51 0 -88 -47q-25 -31 -24 -111v-233z" />
<glyph unicode="c" horiz-adv-x="1105" d="M43 520q0 238 149.5 392.5t389.5 154.5q199 0 335 -110.5t158 -303.5l-358 -30l-2 10q-8 37 -13.5 56.5t-18.5 46t-34.5 38.5t-54.5 12q-45 0 -73.5 -25.5t-40 -73.5t-13.5 -80t-2 -83t3 -83.5t14.5 -79t41 -71t76.5 -24.5q111 0 131 156l348 -29q-27 -199 -160 -306 t-335 -107q-240 0 -385 143q-156 155 -156 397z" />
<glyph unicode="d" horiz-adv-x="1187" d="M35 518q0 106 21.5 199.5t67.5 174.5t131 128t198 47q143 0 249 -106v444h406v-1405h-385v139h-4q-82 -160 -279 -159q-109 0 -189.5 47t-126.5 126.5t-67.5 171t-21.5 193.5zM455 508q0 -256 133 -256q55 0 90 53q25 39 24 133v211q0 92 -24 123q-29 41 -88 41 q-94 0 -115 -111q-20 -96 -20 -194z" />
<glyph unicode="e" d="M51 509.5v10.5q0 103 39 205q41 106 113 180q156 162 416 162t410.5 -154.5t150.5 -414.5v-56h-703q0 -195 160 -194q137 0 160 127l383 -25q-45 -182 -192.5 -276t-344.5 -94q-266 0 -422 137q-170 150 -170 382v10.5zM477 647h293q0 180 -147 180q-76 0 -111 -50 t-35 -130z" />
<glyph unicode="f" horiz-adv-x="819" d="M-4 754v258h147v14q0 190 76 285q92 115 328 114q84 0 301 -26v-256q-123 16 -209 16q-96 0 -96 -112q0 -17 2 -35h258v-258h-254v-754h-406v754h-147z" />
<glyph unicode="g" horiz-adv-x="1187" d="M2 -102q0 150 152 202q-96 72 -97 166q0 156 201 232q-170 70 -170 241q0 78 34 137.5t85 95.5t121.5 57.5t136 29.5t135.5 8q115 0 195 -20q37 246 260 245q72 0 145 -8l-10 -280q-31 4 -100 4q-92 0 -115 -39q117 -94 117 -236q0 -94 -44 -159.5t-119 -98.5t-152 -47 t-165 -14q-18 0 -46.5 2t-47.5 2q-98 0 -98 -51q0 -29 23.5 -37t88.5 -13l287 -12q176 -8 260 -72q121 -90 121 -260q0 -209 -233 -288q-131 -45 -398 -45q-567 0 -567 258zM342 -51q0 -57 82 -78q74 -18 203 -18h23h29q9 0 29.5 1t33 3t29.5 6t27.5 10t20.5 14.5t15.5 20.5 t5.5 26q0 12 -2 21.5t-7.5 15.5t-10.5 11.5t-15 8.5t-14.5 5t-17.5 3t-17 2t-20 1h-17q-31 2 -86 5t-101.5 5t-87.5 2q-102 1 -102 -65zM473 735q0 -127 129 -127q55 0 86 35t31 90q0 131 -125 131q-57 0 -89 -36t-32 -93z" />
<glyph unicode="h" horiz-adv-x="1187" d="M80 0v1405h405v-481q119 143 295 143q193 0 269 -115q29 -43 42 -97t15 -92t2 -108v-655h-406v651q0 61 -20 95t-78 34q-53 0 -86 -39t-33 -112v-629h-405z" />
<glyph unicode="i" horiz-adv-x="614" d="M96 0v1047h406v-1047h-406zM96 1147v278h406v-278h-406z" />
<glyph unicode="j" horiz-adv-x="614" d="M-94 -47q51 -18 86 -19q74 0 94 37t20 115v961h406v-961v-33v-35q0 -8 -1 -32.5t-2 -34.5t-3 -32.5t-5 -35t-8.5 -32t-11.5 -33t-14 -28.5t-18 -30q-94 -125 -295 -125q-127 0 -248 21v297zM106 1147v278h406v-278h-406z" />
<glyph unicode="k" horiz-adv-x="1187" d="M82 0v1405h405v-758l88 117l246 283h353l-316 -361l352 -686h-424l-196 420l-103 -131v-289h-405z" />
<glyph unicode="l" horiz-adv-x="614" d="M104 0v1405h406v-1405h-406z" />
<glyph unicode="m" horiz-adv-x="1761" d="M90 0v1047h369v-142h4q88 162 285 162q203 0 294 -162q100 162 314 162q156 0 243 -90q35 -37 53.5 -89t20.5 -90t2 -112v-686h-397v629v20v21q0 4 -1 19.5t-2 19.5l-4 16q-3 12 -7 16t-11.5 12.5t-15.5 10.5t-19.5 5t-25.5 3q-33 0 -55.5 -13.5t-32.5 -27.5t-16.5 -48 t-6.5 -48v-53v-582h-397v629q0 31 -2 52t-10 46t-28.5 38t-51.5 13q-66 0 -85.5 -39t-19.5 -110v-629h-397z" />
<glyph unicode="n" horiz-adv-x="1187" d="M84 0v1047h383v-148h4q70 168 297 168q188 0 272 -109q31 -41 46.5 -99t17.5 -99t2 -115v-645h-406v635q0 33 -2 52.5t-9 46t-26.5 39.5t-50.5 13q-76 0 -99.5 -49t-23.5 -133v-604h-405z" />
<glyph unicode="o" d="M41 514q0 248 163 400.5t412.5 152.5t412.5 -152.5t163 -400.5q0 -236 -166 -385t-409.5 -149t-409.5 149t-166 385zM475 528q0 -190 36 -245.5t105 -55.5q33 0 54.5 8.5t43 36t33 92t11.5 164.5q0 53 -3 89t-15.5 87.5t-43 79t-80 27.5t-80 -27.5t-43 -79t-15.5 -87.5 t-3 -89z" />
<glyph unicode="p" horiz-adv-x="1187" d="M88 -330v1377h377v-150h4q57 170 297 170q106 0 185 -48t123 -127t64.5 -169t20.5 -188q0 -215 -74 -353q-111 -203 -321 -202q-178 0 -270 133v-443h-406zM496 408q0 -170 110 -170q86 0 111 86q20 72 20 190q0 53 -2 86t-12 89t-39 87t-74 31q-53 0 -90 -43 q-25 -31 -24 -107v-249z" />
<glyph unicode="q" horiz-adv-x="1187" d="M43 518q0 219 102 369q125 180 363 180q229 0 315 -162l68 142h235q-10 -51 -10 -97v-1280h-405v443h-4q-51 -133 -240 -133q-145 0 -243.5 80.5t-139.5 198.5t-41 259zM463 520q0 -55 2 -86t12 -89t39 -88t74 -30q66 0 104 60q20 31 21 121v229q0 102 -29 141 q-37 49 -90 49q-47 0 -77 -31.5t-41 -91t-13 -94.5t-2 -90z" />
<glyph unicode="r" horiz-adv-x="778" d="M82 0v1047h346v-216h4q56 237 247 237q12 0 26 -1l55 -4v-367q-41 10 -78 11q-127 0 -166 -72q-29 -51 -29 -180v-455h-405z" />
<glyph unicode="s" horiz-adv-x="1105" d="M29 297l325 43q25 -113 224 -113q156 0 155 66q0 47 -176 67q-84 12 -136 21.5t-125 35t-115 60.5t-72.5 95.5t-30.5 140.5q0 174 162 274q129 80 335 80q162 0 293 -66.5t181 -205.5l-310 -60q-39 92 -182 92q-55 0 -93 -16t-38 -39q0 -39 61 -53q16 -4 177 -25 q207 -27 284 -78q147 -94 148 -266q0 -102 -50.5 -178t-133.5 -116t-172 -58t-185 -18q-424 0 -526 317z" />
<glyph unicode="t" horiz-adv-x="819" d="M2 780v267h170l31 333l352 13v-346h209v-267h-205v-360v-17q0 -43 3 -63.5t22.5 -37.5t62.5 -17q47 0 117 18v-293q-139 -35 -281 -35q-150 0 -252 111q-37 41 -55 95.5t-20 91t-2 112.5v395h-152z" />
<glyph unicode="u" d="M84 324v723h405v-633q0 -47 2.5 -69.5t24 -46.5t64.5 -24q68 0 98 60q20 39 20 110v603h406v-1047h-383v172h-4q-31 -96 -119 -144t-199 -48q-147 0 -233 79q-82 83 -82 265z" />
<glyph unicode="v" horiz-adv-x="1105" d="M20 1047h424l181 -553l184 553h293l-383 -1047h-307z" />
<glyph unicode="w" horiz-adv-x="1597" d="M23 1047h403l135 -512h4l129 512h303l131 -512l146 512h285l-332 -1047h-295l-135 567h-4l-142 -567h-291z" />
<glyph unicode="x" horiz-adv-x="1187" d="M0 0l367 555l-322 492h459l106 -193l11 -23l22 -36l145 252h338l-305 -476l373 -571h-463l-192 334l-205 -334h-334z" />
<glyph unicode="y" horiz-adv-x="1105" d="M-2 1047h440l172 -558l183 558h299l-404 -1110q-59 -164 -150.5 -231.5t-265.5 -67.5q-104 0 -206 10v291q98 -12 147 -13q178 0 178 80q0 20 -26 94z" />
<glyph unicode="z" horiz-adv-x="1024" d="M47 0v227l442 568l-131 -4h-272v256h868v-222l-448 -565h465v-260h-924z" />
<glyph unicode="{" horiz-adv-x="778" d="M25 463v172q215 -8 215 92v424q0 121 104.5 187.5t230.5 66.5h177v-180h-97q-43 0 -68.5 -8.5t-35.5 -24.5t-12 -28.5t-2 -37.5v-397q-6 -162 -252 -180v-4q35 -2 59.5 -5t63 -14.5t63.5 -31t44.5 -57.5t21.5 -89v-399q0 -25 2 -37t12 -28.5t35.5 -25t68.5 -8.5h97v-180 h-172q-129 0 -234.5 65.5t-105.5 188.5v426q0 121 -215 113z" />
<glyph unicode="|" horiz-adv-x="614" d="M154 -512v2048h307v-2048h-307z" />
<glyph unicode="}" horiz-adv-x="778" d="M25 -150h96q43 0 68.5 8.5t36 25t12.5 28.5t2 37v399q2 51 21.5 89t44 57.5t63.5 31t63.5 14.5t59.5 5v4q-246 18 -252 180v397q0 25 -2 37.5t-12.5 28.5t-36 24.5t-68.5 8.5h-96v180h174q129 0 233.5 -66.5t104.5 -187.5v-424q0 -100 215 -92v-172q-215 8 -215 -113 v-426q0 -123 -104.5 -188.5t-235.5 -65.5h-172v180z" />
<glyph unicode="~" d="M25 385q0 213 65 334q72 129 201 129q63 0 203 -68l215 -106q70 -35 112 -35q47 0 61.5 39t14.5 119h307q0 -213 -65 -334q-70 -129 -199 -129q-43 0 -79 11t-126 56l-215 107q-70 35 -106 35q-49 0 -65.5 -39t-16.5 -119h-307z" />
<glyph unicode="&#xa1;" horiz-adv-x="655" d="M84 -362l117 931h260l110 -931h-487zM133 672v375h391v-375h-391z" />
<glyph unicode="&#xa2;" d="M123 735q0 203 105.5 342.5t301.5 177.5v209h197v-209q156 -23 258 -123t121 -255l-344 -27q0 57 -33 106.5t-88 49.5q-133 0 -133 -261q0 -240 133 -239q113 0 135 141l330 -29q-23 -152 -125 -253t-254 -123v-267h-197v267q-190 37 -299 168q-108 132 -108 325z" />
<glyph unicode="&#xa3;" d="M18 0v293h25q117 0 166 37q66 53 65 145q0 49 -16 143h-178v242h133l-14 144q0 188 147 303q154 119 367 118q160 0 284.5 -73.5t167.5 -216.5l-311 -105q-23 55 -48.5 83t-76.5 28q-53 0 -84 -33t-31 -84q0 -66 23 -164h217v-242h-186q16 -199 -148 -325h150 q96 0 146 39t65 131l329 -62q-94 -401 -508 -401h-684z" />
<glyph unicode="&#xa4;" d="M94 236l90 90q-76 135 -75 262q0 143 75 268l-90 88l162 164l90 -90q129 78 264 78q150 0 275 -78l90 90l158 -164l-91 -88q78 -125 78 -266q0 -154 -78 -264l91 -90l-158 -162l-90 90q-133 -80 -264 -80q-152 0 -275 80l-90 -90zM362 589.5q0 -102.5 73 -177 t179.5 -74.5t179 74.5t72.5 177t-72.5 177.5t-179 75t-179.5 -75t-73 -177.5z" />
<glyph unicode="&#xa5;" d="M20 1405h402l246 -504l235 504h307l-227 -463h166v-211h-270l-48 -98h318v-211h-336v-422h-362v422h-342v211h321l-53 98h-268v211h157z" />
<glyph unicode="&#xa6;" horiz-adv-x="614" d="M154 358h307v-716h-307v716zM154 666v716h307v-716h-307z" />
<glyph unicode="&#xa7;" d="M104 -23l304 52q61 -135 233 -135q57 0 108.5 25.5t51.5 76.5q0 18 -8.5 34.5t-26.5 32t-33.5 25.5t-44.5 22.5t-42 17.5t-43 15.5t-34 12.5q-213 80 -282 125q-158 104 -158 282q0 86 29.5 149.5t93.5 141.5q-100 84 -100 231q0 92 44 161t117.5 107t154.5 55t167 17 q324 0 442 -249l-256 -72q-49 115 -198 115q-47 0 -92.5 -18.5t-45.5 -57.5q0 -23 14.5 -42.5t42 -34.5t49 -25.5t55.5 -22.5t42 -17q215 -86 254 -112q150 -100 150 -281q0 -139 -117 -266q72 -43 110.5 -115.5t38.5 -154.5q0 -199 -149.5 -300.5t-360.5 -101.5 q-379 0 -510 307zM432 637q0 -25 12.5 -44.5t42 -36.5t46 -25.5t56.5 -22.5t42 -16l106 -41q61 49 62 90q0 55 -70 96q-35 18 -156 65l-84 35q-57 -45 -57 -100z" />
<glyph unicode="&#xa8;" horiz-adv-x="901" d="M137 1372q0 57 39 96t96.5 39t96.5 -40t39 -95q0 -57 -40 -96t-98 -39q-53 0 -93 40t-40 95zM498 1372q0 57 38.5 96t96 39t96.5 -40t39 -95q0 -57 -40 -96t-97 -39q-53 0 -93 40t-40 95z" />
<glyph unicode="&#xa9;" horiz-adv-x="1515" d="M33 705q0 299 212 509.5t513 210.5q299 0 512 -210.5t213 -509.5q0 -301 -212 -513t-513 -212t-513 211t-212 514zM246 705q0 -244 138 -388.5t374 -144.5q233 0 372.5 144.5t139.5 388.5q0 242 -140.5 386t-371.5 144q-236 0 -374 -144t-138 -386zM387 709 q0 184 107.5 300.5t289.5 116.5q133 0 226.5 -72.5t115.5 -199.5h-163q-12 63 -61.5 97t-119.5 34q-102 0 -157.5 -78t-55.5 -194q0 -111 59.5 -196t159.5 -85q68 0 119 39t56 100h163q-16 -127 -112 -202.5t-226 -75.5q-178 0 -289.5 119t-111.5 297z" />
<glyph unicode="&#xaa;" horiz-adv-x="778" d="M27 961q0 72 50 122t128 72q98 27 268 39v4q0 45 -16.5 62.5t-63.5 17.5q-94 0 -104 -72l-242 23q49 197 354 196q168 0 248 -55q16 -10 29.5 -23.5t22 -23.5t14.5 -27.5t9 -26.5t4 -32t1 -29v-32v-33v-221q0 -92 21 -138h-254q-10 47 -11 88q-72 -100 -221 -100 q-100 0 -168.5 49.5t-68.5 139.5zM303 977q0 -57 70 -57q45 0 68.5 24.5t27.5 50t4 70.5v12q-170 -16 -170 -100z" />
<glyph unicode="&#xab;" horiz-adv-x="860" d="M104 526l179 299h145l-109 -299l109 -280h-145zM432 526l178 299h146l-109 -299l109 -280h-146z" />
<glyph unicode="&#xac;" d="M63 684v307h1102v-667h-307v360h-795z" />
<glyph unicode="&#xad;" horiz-adv-x="532" d="M0 401v324h520v-324h-520z" />
<glyph unicode="&#xae;" horiz-adv-x="1515" d="M78 958.5q0 190.5 134 324.5t324.5 134t324.5 -134t134 -324.5t-134 -324.5t-324.5 -134t-324.5 134t-134 324.5zM203 958.5q0 -139.5 97 -236.5t236.5 -97t236.5 97t97 236.5t-97 236.5t-236.5 97t-236.5 -97t-97 -236.5zM342 731v453h236q172 0 172 -135 q0 -82 -84 -121l84 -197h-136l-71 164h-64v-164h-137zM479 987h51q86 0 86 64q0 47 -77 47h-60v-111z" />
<glyph unicode="&#xaf;" horiz-adv-x="942" d="M145 1356v151h652v-151h-652z" />
<glyph unicode="&#xb0;" horiz-adv-x="819" d="M102 1118q-2 127 89.5 217t218.5 90t217 -90t90 -217t-90 -217t-217 -90t-217.5 90t-90.5 217zM281 1116q0 -51 37.5 -89t89 -38t89.5 38t38 89q0 53 -38 90t-91 37q-51 0 -89 -38t-36 -89z" />
<glyph unicode="&#xb1;" d="M90 0v307h1049v-307h-1049zM90 727v307h371v371h307v-371h371v-307h-371v-371h-307v371h-371z" />
<glyph unicode="&#xb2;" horiz-adv-x="737" d="M14 569v193l310 215q39 31 59 49t41.5 52t21.5 69q0 39 -23.5 63.5t-64.5 24.5q-106 0 -114 -145l-230 40q18 135 116.5 215t246.5 80q145 0 241.5 -71.5t96.5 -202.5q0 -121 -117 -217l-213 -146l-20 -12h356l-12 -207h-695z" />
<glyph unicode="&#xb3;" horiz-adv-x="737" d="M-6 825l239 29q6 -51 42 -83t92 -32q47 0 79.5 22.5t32.5 65.5q0 47 -43 72q-18 12 -94 12h-94v179h76q74 0 92 8q43 20 43 65q0 37 -28 58.5t-69 21.5q-96 0 -114 -98l-221 35q31 119 129 182t233 63q121 0 213 -49q51 -29 83 -79t32 -105q0 -66 -36 -115t-99 -67 q164 -49 163 -199q0 -131 -105 -192.5t-257 -61.5q-317 0 -389 268z" />
<glyph unicode="&#xb4;" horiz-adv-x="819" d="M137 1307l475 200l70 -200l-492 -140z" />
<glyph unicode="&#xb5;" d="M84 -330v1377h405v-633q0 -47 2.5 -69.5t24 -46.5t64.5 -24q68 0 98 60q20 39 20 110v603h406v-1047h-383v172h-4q-29 -90 -104.5 -141t-123.5 -51v-310h-405z" />
<glyph unicode="&#xb6;" horiz-adv-x="1105" d="M18 928q-16 174 108 325.5t286 151.5h680v-162h-136v-1573h-180v1573h-155v-1573h-181v846q-381 37 -422 412z" />
<glyph unicode="&#xb7;" horiz-adv-x="614" d="M111 403v375h391v-375h-391z" />
<glyph unicode="&#xb8;" horiz-adv-x="696" d="M133 -350l37 84q86 -45 147 -45q80 0 80 59q0 41 -42 60.5t-87 19.5l-30 -2l61 174h117l-33 -98l31 2q66 0 108.5 -44t42.5 -110q0 -80 -61.5 -125t-143.5 -45q-106 0 -227 70z" />
<glyph unicode="&#xb9;" horiz-adv-x="737" d="M16 569v189h226v399l-11 -4q-123 -49 -190 -57v190q195 37 262 139h199v-667h217v-189h-703z" />
<glyph unicode="&#xba;" horiz-adv-x="778" d="M16 1094q0 150 105.5 240.5t267.5 90.5q160 0 266.5 -88t106.5 -235q0 -150 -106.5 -240t-272.5 -90q-154 0 -260.5 90.5t-106.5 231.5zM297 1102q0 -96 22 -144q16 -37 66 -36q57 0 74 45q18 47 18 135q0 35 -1 53.5t-8 51t-27.5 49t-51.5 16.5q-92 0 -92 -170z" />
<glyph unicode="&#xbb;" horiz-adv-x="860" d="M104 246l109 280l-109 299h146l178 -299l-178 -280h-146zM432 246l109 280l-109 299h146l178 -299l-178 -280h-146z" />
<glyph unicode="&#xbc;" horiz-adv-x="1843" d="M20 569v189h226v399l-10 -4q-123 -49 -191 -57v190q195 37 262 139h199v-667h217v-189h-703zM492 0l860 1405h217l-854 -1405h-223zM1069 186v183l344 487h281v-487h129v-183h-129v-186h-252v186h-373zM1270 369h172v254z" />
<glyph unicode="&#xbd;" horiz-adv-x="1843" d="M20 569v189h226v399l-10 -4q-123 -49 -191 -57v190q195 37 262 139h199v-667h217v-189h-703zM455 0l860 1405h217l-854 -1405h-223zM1116 0v193l309 215q39 31 59.5 49t42 52t21.5 69q0 39 -23.5 63.5t-64.5 24.5q-106 0 -114 -146l-230 41q18 135 116.5 215t246.5 80 q145 0 241.5 -71.5t96.5 -202.5q0 -121 -117 -217l-213 -146l-21 -12h357l-13 -207h-694z" />
<glyph unicode="&#xbe;" horiz-adv-x="1843" d="M20 825l240 29q6 -51 42 -83t91 -32q47 0 80 22.5t33 65.5q0 47 -43 72q-18 12 -94 12h-95v179h76q74 0 92 8q43 20 43 65q0 37 -27.5 58.5t-68.5 21.5q-96 0 -115 -98l-221 35q31 119 129.5 182t233.5 63q121 0 213 -49q51 -29 82.5 -79t31.5 -105q0 -66 -35.5 -115 t-99.5 -67q164 -49 164 -199q0 -131 -105.5 -192.5t-256.5 -61.5q-318 0 -390 268zM463 0l860 1405h217l-854 -1405h-223zM1069 186v183l344 487h281v-487h129v-183h-129v-186h-252v186h-373zM1270 369h172v254z" />
<glyph unicode="&#xbf;" d="M78 80q0 127 56 203.5t179 167.5q4 4 22.5 16t26 17t21.5 17.5t20.5 21.5t15.5 22.5t12 27t3 27.5h342q0 -119 -19.5 -174t-92.5 -123q-57 -51 -81 -73.5t-49.5 -70.5t-25.5 -103.5t30.5 -93.5t86.5 -38q141 0 149 211l2 27l377 -43q-84 -481 -561 -481 q-217 0 -365.5 115.5t-148.5 326.5zM397 672v375h391v-375h-391z" />
<glyph unicode="&#xc0;" horiz-adv-x="1351" d="M18 0l437 1405h454l441 -1405h-441l-80 276h-374l-86 -276h-351zM403 1665l70 201l475 -201l-53 -139zM526 584h230l-115 407z" />
<glyph unicode="&#xc1;" horiz-adv-x="1351" d="M18 0l437 1405h454l441 -1405h-441l-80 276h-374l-86 -276h-351zM403 1665l476 201l69 -201l-491 -139zM526 584h230l-115 407z" />
<glyph unicode="&#xc2;" horiz-adv-x="1351" d="M18 0l437 1405h454l441 -1405h-441l-80 276h-374l-86 -276h-351zM256 1532l420 334l420 -334h-254l-166 121l-168 -121h-252zM526 584h230l-115 407z" />
<glyph unicode="&#xc3;" horiz-adv-x="1351" d="M18 0l437 1405h454l441 -1405h-441l-80 276h-374l-86 -276h-351zM297 1700q2 2 26.5 19.5t29.5 20.5t27.5 18.5t32 19.5t30 14t33.5 14t31.5 7.5t35.5 3.5q51 0 138 -36t122 -36q20 0 41.5 9t35 18.5t37 28t31.5 24.5l105 -125q-131 -127 -260 -127q-47 0 -131 36 t-123 36q-37 0 -76 -25q-12 -8 -66 -51zM526 584h230l-115 407z" />
<glyph unicode="&#xc4;" horiz-adv-x="1351" d="M18 0l437 1405h454l441 -1405h-441l-80 276h-374l-86 -276h-351zM362 1731q0 57 39 96t96.5 39t96.5 -40t39 -95q0 -57 -40 -96.5t-97 -39.5q-53 0 -93.5 40.5t-40.5 95.5zM526 584h230l-115 407zM723 1731q0 57 39 96t96 39t96 -40t39 -95q0 -57 -40 -96.5t-97 -39.5 q-53 0 -93 40.5t-40 95.5z" />
<glyph unicode="&#xc5;" horiz-adv-x="1351" d="M18 0l437 1405h454l441 -1405h-441l-80 276h-374l-86 -276h-351zM469 1700q0 86 60.5 146.5t146.5 60.5t146.5 -60.5t60.5 -146.5q0 -84 -60.5 -144.5t-146.5 -60.5t-146.5 59.5t-60.5 145.5zM526 584h230l-115 407zM604 1698q0 -29 21.5 -49.5t50.5 -20.5 q31 0 51.5 21.5t20.5 52.5q0 29 -21.5 49.5t-50.5 20.5q-31 0 -51.5 -21.5t-20.5 -52.5z" />
<glyph unicode="&#xc6;" horiz-adv-x="1966" d="M2 0l627 1405h1257v-324h-626v-204h507v-314h-507v-227h641v-336h-1067v291h-336l-131 -291h-365zM612 584h222v497h-5z" />
<glyph unicode="&#xc7;" horiz-adv-x="1351" d="M47 684q0 326 161 533.5t476 207.5q266 0 417.5 -148.5t174.5 -414.5l-402 -20q4 104 -41 186t-145 82q-199 0 -199 -426q0 -72 5.5 -123t23 -117.5t62.5 -103.5t112 -37q92 0 138.5 67.5t52.5 166.5l393 -25q-18 -229 -164.5 -371.5t-374.5 -156.5l-26 -82l30 2 q66 0 109 -44t43 -110q0 -80 -61.5 -125t-143.5 -45q-106 0 -227 70l37 84q86 -45 147 -45q80 0 80 59q0 41 -42 60.5t-87 19.5l-31 -2l56 158q-274 23 -424 215t-150 485z" />
<glyph unicode="&#xc8;" d="M106 0v1405h1055v-324h-633v-204h512v-314h-512v-227h633v-336h-1055zM301 1665l70 201l475 -201l-53 -139z" />
<glyph unicode="&#xc9;" d="M106 0v1405h1055v-324h-633v-204h512v-314h-512v-227h633v-336h-1055zM383 1665l475 201l70 -201l-492 -139z" />
<glyph unicode="&#xca;" d="M106 0v1405h1055v-324h-633v-204h512v-314h-512v-227h633v-336h-1055zM195 1532l419 334l420 -334h-254l-166 121l-168 -121h-251z" />
<glyph unicode="&#xcb;" d="M106 0v1405h1055v-324h-633v-204h512v-314h-512v-227h633v-336h-1055zM301 1731q0 57 39 96t96.5 39t96 -40t38.5 -95q0 -57 -39.5 -96.5t-97.5 -39.5q-53 0 -93 40.5t-40 95.5zM662 1731q0 57 38.5 96t96 39t96.5 -40t39 -95q0 -57 -40 -96.5t-97 -39.5q-53 0 -93 40.5 t-40 95.5z" />
<glyph unicode="&#xcc;" horiz-adv-x="655" d="M55 1665l70 201l475 -201l-53 -139zM117 0v1405h434v-1405h-434z" />
<glyph unicode="&#xcd;" horiz-adv-x="655" d="M55 1665l475 201l70 -201l-491 -139zM117 0v1405h434v-1405h-434z" />
<glyph unicode="&#xce;" horiz-adv-x="655" d="M-92 1532l420 334l420 -334h-254l-166 121l-168 -121h-252zM117 0v1405h434v-1405h-434z" />
<glyph unicode="&#xcf;" horiz-adv-x="655" d="M14 1731q0 57 39 96t96.5 39t96.5 -40t39 -95q0 -57 -40 -96.5t-98 -39.5q-53 0 -93 40.5t-40 95.5zM117 0v1405h434v-1405h-434zM375 1731q0 57 39 96t96 39t96 -40t39 -95q0 -57 -40 -96.5t-97 -39.5q-53 0 -93 40.5t-40 95.5z" />
<glyph unicode="&#xd0;" horiz-adv-x="1392" d="M-41 547v340h150v518h518q170 0 289.5 -35t226.5 -137q215 -203 215 -533q0 -141 -50.5 -276t-144.5 -234q-182 -190 -508 -190h-546v547h-150zM541 324h61q102 0 148 24q57 33 92 92q66 109 65 271q0 182 -86 295q-33 39 -72.5 57t-65.5 20t-93 2h-49v-198h184v-340 h-184v-223z" />
<glyph unicode="&#xd1;" horiz-adv-x="1433" d="M119 0v1405h407l471 -784l4 4l-30 389v391h350v-1405h-352l-404 657l-125 254l-4 -4l4 -16q29 -127 29 -236v-655h-350zM338 1700q2 2 26.5 19.5t29.5 20.5t27.5 18.5t32 19.5t30 14t33.5 14t31.5 7.5t35.5 3.5q51 0 138 -36t122 -36q20 0 41.5 9t35 18.5t37 28 t31.5 24.5l105 -125q-131 -127 -260 -127q-47 0 -131.5 36t-122.5 36q-37 0 -76 -25q-12 -8 -66 -51z" />
<glyph unicode="&#xd2;" horiz-adv-x="1433" d="M51 698q0 324 179.5 525.5t492.5 201.5t492.5 -201.5t179.5 -525.5q0 -309 -180.5 -513.5t-491.5 -204.5t-491.5 204.5t-180.5 513.5zM403 1665l70 201l475 -201l-53 -139zM512 696q0 -395 211 -395t211 395q0 66 -7 125.5t-26.5 130t-64.5 113.5t-113 43t-113 -43 t-64.5 -113.5t-26.5 -130t-7 -125.5z" />
<glyph unicode="&#xd3;" horiz-adv-x="1433" d="M51 698q0 324 179.5 525.5t492.5 201.5t492.5 -201.5t179.5 -525.5q0 -309 -180.5 -513.5t-491.5 -204.5t-491.5 204.5t-180.5 513.5zM485 1665l476 201l69 -201l-491 -139zM512 696q0 -395 211 -395t211 395q0 66 -7 125.5t-26.5 130t-64.5 113.5t-113 43t-113 -43 t-64.5 -113.5t-26.5 -130t-7 -125.5z" />
<glyph unicode="&#xd4;" horiz-adv-x="1433" d="M51 698q0 324 179.5 525.5t492.5 201.5t492.5 -201.5t179.5 -525.5q0 -309 -180.5 -513.5t-491.5 -204.5t-491.5 204.5t-180.5 513.5zM297 1532l420 334l420 -334h-254l-166 121l-168 -121h-252zM512 696q0 -395 211 -395t211 395q0 66 -7 125.5t-26.5 130t-64.5 113.5 t-113 43t-113 -43t-64.5 -113.5t-26.5 -130t-7 -125.5z" />
<glyph unicode="&#xd5;" horiz-adv-x="1433" d="M51 698q0 324 179.5 525.5t492.5 201.5t492.5 -201.5t179.5 -525.5q0 -309 -180.5 -513.5t-491.5 -204.5t-491.5 204.5t-180.5 513.5zM338 1700q2 2 26.5 19.5t29.5 20.5t27.5 18.5t32 19.5t30 14t33.5 14t31.5 7.5t35.5 3.5q51 0 138 -36t122 -36q20 0 41.5 9t35 18.5 t37 28t31.5 24.5l105 -125q-131 -127 -260 -127q-47 0 -131.5 36t-122.5 36q-37 0 -76 -25q-12 -8 -66 -51zM512 696q0 -395 211 -395t211 395q0 66 -7 125.5t-26.5 130t-64.5 113.5t-113 43t-113 -43t-64.5 -113.5t-26.5 -130t-7 -125.5z" />
<glyph unicode="&#xd6;" horiz-adv-x="1433" d="M51 698q0 324 179.5 525.5t492.5 201.5t492.5 -201.5t179.5 -525.5q0 -309 -180.5 -513.5t-491.5 -204.5t-491.5 204.5t-180.5 513.5zM403 1731q0 57 39 96t96.5 39t96.5 -40t39 -95q0 -57 -40 -96.5t-97 -39.5q-53 0 -93.5 40.5t-40.5 95.5zM512 696q0 -395 211 -395 t211 395q0 66 -7 125.5t-26.5 130t-64.5 113.5t-113 43t-113 -43t-64.5 -113.5t-26.5 -130t-7 -125.5zM764 1731q0 57 39 96t96 39t96 -40t39 -95q0 -57 -40 -96.5t-97 -39.5q-53 0 -93 40.5t-40 95.5z" />
<glyph unicode="&#xd7;" d="M90 283l307 307l-307 307l217 217l307 -307l308 307l217 -217l-308 -307l308 -307l-217 -217l-308 307l-307 -307z" />
<glyph unicode="&#xd8;" horiz-adv-x="1433" d="M55 700q0 313 178.5 519t487.5 206q154 0 285 -59l112 178h217l-166 -284q106 -100 160.5 -253t54.5 -313q0 -315 -176 -514q-182 -201 -510 -200q-154 0 -262 51l-100 -162h-221l159 270q-219 217 -219 561zM514 702l10 -159l318 520q-55 45 -125 45q-47 0 -84 -19.5 t-57.5 -56.5t-34 -72.5t-19.5 -90t-7 -87.5t-1 -80zM606 338q53 -41 115 -41q49 0 86 17.5t58.5 54.5t33.5 69.5t17.5 88t6.5 84t1 81.5l-11 160z" />
<glyph unicode="&#xd9;" horiz-adv-x="1351" d="M90 479v926h438v-877q0 -115 27 -153q47 -63 154 -64q94 0 147 47q10 8 18.5 19.5t13.5 20t8 23.5t5 22.5t3 26.5t1 25v25v25v860h338v-903q0 -141 -29.5 -234.5t-123.5 -169.5q-152 -119 -416 -118q-254 0 -406 100q-104 70 -141 164t-37 235zM240 1665l69 201l475 -201 l-53 -139z" />
<glyph unicode="&#xda;" horiz-adv-x="1351" d="M90 479v926h438v-877q0 -115 27 -153q47 -63 154 -64q94 0 147 47q10 8 18.5 19.5t13.5 20t8 23.5t5 22.5t3 26.5t1 25v25v25v860h338v-903q0 -141 -29.5 -234.5t-123.5 -169.5q-152 -119 -416 -118q-254 0 -406 100q-104 70 -141 164t-37 235zM588 1665l475 201l70 -201 l-492 -139z" />
<glyph unicode="&#xdb;" horiz-adv-x="1351" d="M90 479v926h438v-877q0 -115 27 -153q47 -63 154 -64q94 0 147 47q10 8 18.5 19.5t13.5 20t8 23.5t5 22.5t3 26.5t1 25v25v25v860h338v-903q0 -141 -29.5 -234.5t-123.5 -169.5q-152 -119 -416 -118q-254 0 -406 100q-104 70 -141 164t-37 235zM256 1532l420 334 l420 -334h-254l-166 121l-168 -121h-252z" />
<glyph unicode="&#xdc;" horiz-adv-x="1351" d="M90 479v926h438v-877q0 -115 27 -153q47 -63 154 -64q94 0 147 47q10 8 18.5 19.5t13.5 20t8 23.5t5 22.5t3 26.5t1 25v25v25v860h338v-903q0 -141 -29.5 -234.5t-123.5 -169.5q-152 -119 -416 -118q-254 0 -406 100q-104 70 -141 164t-37 235zM362 1731q0 57 39 96 t96.5 39t96.5 -40t39 -95q0 -57 -40 -96.5t-97 -39.5q-53 0 -93.5 40.5t-40.5 95.5zM723 1731q0 57 39 96t96 39t96 -40t39 -95q0 -57 -40 -96.5t-97 -39.5q-53 0 -93 40.5t-40 95.5z" />
<glyph unicode="&#xdd;" horiz-adv-x="1351" d="M2 1405h473l246 -463l235 463h377l-440 -811v-594h-418v594zM557 1665l475 201l70 -201l-492 -139z" />
<glyph unicode="&#xde;" horiz-adv-x="1351" d="M106 0v1405h437v-254h137q285 0 412 -74q98 -57 153 -155.5t55 -212.5q0 -219 -155 -344q-133 -109 -383 -109h-219v-256h-437zM543 557h112q47 0 77 3t67 15.5t55 42t18 76.5q0 84 -55 109.5t-149 25.5h-125v-272z" />
<glyph unicode="&#xdf;" horiz-adv-x="1351" d="M27 657v244h75q8 252 166 388t428 136q186 0 291 -59q162 -88 162 -254q0 -121 -85 -192.5t-220 -96.5q-31 -4 -31 -10q0 -8 39 -20q100 -37 165.5 -70t139.5 -85t111 -124t37 -164q0 -166 -148 -284q-131 -106 -336 -107q-154 0 -252 33l90 266q63 -41 140 -41 q143 0 143 90q0 41 -41 75t-100.5 61.5t-117.5 59.5t-99 84t-41 122q0 68 29.5 140.5t78.5 123.5q53 -4 91 21.5t38 76.5q0 45 -34.5 72.5t-83.5 27.5q-84 0 -130 -53q-43 -53 -43 -186v-1065h-387v790h-75z" />
<glyph unicode="&#xe0;" horiz-adv-x="1187" d="M41 295q0 117 78 201t196 120q166 51 412 66v8q0 74 -25.5 102.5t-97.5 28.5q-143 0 -160 -116l-372 34q78 328 544 328q258 0 383 -90q25 -18 44.5 -40t33 -39t21.5 -46t13 -44t7 -52t2 -50v-56v-54v-367q0 -152 33 -229h-391q-14 66 -14 145q-113 -166 -342 -165 q-156 0 -260.5 82.5t-104.5 232.5zM281 1307l69 200l475 -200l-53 -140zM465 322q0 -96 106 -97q45 0 76 15.5t46.5 36t23.5 58.5t9 63.5t1 70.5v20q-262 -26 -262 -167z" />
<glyph unicode="&#xe1;" horiz-adv-x="1187" d="M41 295q0 117 78 201t196 120q166 51 412 66v8q0 74 -25.5 102.5t-97.5 28.5q-143 0 -160 -116l-372 34q78 328 544 328q258 0 383 -90q25 -18 44.5 -40t33 -39t21.5 -46t13 -44t7 -52t2 -50v-56v-54v-367q0 -152 33 -229h-391q-14 66 -14 145q-113 -166 -342 -165 q-156 0 -260.5 82.5t-104.5 232.5zM362 1307l476 200l69 -200l-491 -140zM465 322q0 -96 106 -97q45 0 76 15.5t46.5 36t23.5 58.5t9 63.5t1 70.5v20q-262 -26 -262 -167z" />
<glyph unicode="&#xe2;" horiz-adv-x="1187" d="M41 295q0 117 78 201t196 120q166 51 412 66v8q0 74 -25.5 102.5t-97.5 28.5q-143 0 -160 -116l-372 34q78 328 544 328q258 0 383 -90q25 -18 44.5 -40t33 -39t21.5 -46t13 -44t7 -52t2 -50v-56v-54v-367q0 -152 33 -229h-391q-14 66 -14 145q-113 -166 -342 -165 q-156 0 -260.5 82.5t-104.5 232.5zM174 1174l420 333l420 -333h-254l-166 120l-168 -120h-252zM465 322q0 -96 106 -97q45 0 76 15.5t46.5 36t23.5 58.5t9 63.5t1 70.5v20q-262 -26 -262 -167z" />
<glyph unicode="&#xe3;" horiz-adv-x="1187" d="M41 295q0 117 78 201t196 120q166 51 412 66v8q0 74 -25.5 102.5t-97.5 28.5q-143 0 -160 -116l-372 34q78 328 544 328q258 0 383 -90q25 -18 44.5 -40t33 -39t21.5 -46t13 -44t7 -52t2 -50v-56v-54v-367q0 -152 33 -229h-391q-14 66 -14 145q-113 -166 -342 -165 q-156 0 -260.5 82.5t-104.5 232.5zM256 1341q2 2 26.5 19.5t29.5 20.5t27.5 18.5t32 19.5t30 14.5t34 14.5t31.5 7t35 3q51 0 138 -36t122 -36q20 0 41.5 9.5t35 18.5t37 27.5t31.5 24.5l105 -125q-131 -127 -260 -127q-47 0 -131 36t-123 36q-37 0 -76 -24q-12 -8 -66 -52z M465 322q0 -96 106 -97q45 0 76 15.5t46.5 36t23.5 58.5t9 63.5t1 70.5v20q-262 -26 -262 -167z" />
<glyph unicode="&#xe4;" horiz-adv-x="1187" d="M41 295q0 117 78 201t196 120q166 51 412 66v8q0 74 -25.5 102.5t-97.5 28.5q-143 0 -160 -116l-372 34q78 328 544 328q258 0 383 -90q25 -18 44.5 -40t33 -39t21.5 -46t13 -44t7 -52t2 -50v-56v-54v-367q0 -152 33 -229h-391q-14 66 -14 145q-113 -166 -342 -165 q-156 0 -260.5 82.5t-104.5 232.5zM281 1372q0 57 38.5 96t96 39t96.5 -40t39 -95q0 -57 -40 -96t-97 -39q-53 0 -93 40t-40 95zM465 322q0 -96 106 -97q45 0 76 15.5t46.5 36t23.5 58.5t9 63.5t1 70.5v20q-262 -26 -262 -167zM641 1372q0 57 39 96t96.5 39t96 -40t38.5 -95 q0 -57 -40 -96t-97 -39q-53 0 -93 40t-40 95z" />
<glyph unicode="&#xe5;" horiz-adv-x="1187" d="M41 295q0 117 78 201t196 120q166 51 412 66v8q0 74 -25.5 102.5t-97.5 28.5q-143 0 -160 -116l-372 34q78 328 544 328q258 0 383 -90q25 -18 44.5 -40t33 -39t21.5 -46t13 -44t7 -52t2 -50v-56v-54v-367q0 -152 33 -229h-391q-14 66 -14 145q-113 -166 -342 -165 q-156 0 -260.5 82.5t-104.5 232.5zM428 1382q0 86 60.5 146.5t146.5 60.5t146.5 -60.5t60.5 -146.5q0 -84 -60.5 -144t-146.5 -60t-146.5 59t-60.5 145zM465 322q0 -96 106 -97q45 0 76 15.5t46.5 36t23.5 58.5t9 63.5t1 70.5v20q-262 -26 -262 -167zM563 1380 q0 -29 21.5 -49t50.5 -20q31 0 51.5 21.5t20.5 51.5q0 29 -21.5 49.5t-50.5 20.5q-31 0 -51.5 -21.5t-20.5 -52.5z" />
<glyph unicode="&#xe6;" horiz-adv-x="1679" d="M57 295q0 74 24.5 133t74 99t100.5 67t126 45t127 26.5t128 16.5l37 2v14q0 74 -25 97q-31 29 -86 28.5t-92 -33t-43 -85.5l-346 34q25 119 103.5 195t177 104.5t221.5 28.5q178 0 278 -72q121 72 264 72q233 0 366.5 -153.5t133.5 -389.5l-2 -75h-625q4 -94 35 -146.5 t117 -52.5q121 0 135 129l338 -25q-31 -170 -165 -272t-310 -102q-252 0 -401 176q-125 -176 -367 -176q-143 0 -233.5 86t-90.5 229zM446 322q0 -41 25 -70t64 -29q141 0 141 207l-2 64q-228 -39 -228 -172zM999 651h265q4 74 -28 127t-103 53q-70 0 -105 -54t-29 -126z " />
<glyph unicode="&#xe7;" horiz-adv-x="1105" d="M43 520q0 238 149.5 392.5t389.5 154.5q199 0 335 -110.5t158 -303.5l-358 -30l-2 10q-8 37 -13.5 56.5t-18.5 46t-34.5 38.5t-54.5 12q-45 0 -73.5 -25.5t-40 -73.5t-13.5 -80t-2 -83t3 -83.5t14.5 -79t41 -71t76.5 -24.5q111 0 131 156l348 -29q-27 -190 -149.5 -296.5 t-315.5 -114.5l-26 -80l30 2q66 0 109 -44t43 -110q0 -80 -61.5 -125t-143.5 -45q-106 0 -227 70l37 84q86 -45 147 -45q80 0 80 59q0 41 -42 60.5t-87 19.5l-31 -2l58 160q-176 16 -301 137q-156 155 -156 397z" />
<glyph unicode="&#xe8;" d="M51 510q-2 109 39 215t113 180q156 162 416 162t410.5 -154.5t150.5 -414.5v-56h-703q0 -195 160 -194q137 0 160 127l383 -25q-45 -182 -192.5 -276t-344.5 -94q-266 0 -422 137q-174 153 -170 393zM301 1307l70 200l475 -200l-53 -140zM477 647h293q0 180 -147 180 q-76 0 -111 -50t-35 -130z" />
<glyph unicode="&#xe9;" d="M51 510q-2 109 39 215t113 180q156 162 416 162t410.5 -154.5t150.5 -414.5v-56h-703q0 -195 160 -194q137 0 160 127l383 -25q-45 -182 -192.5 -276t-344.5 -94q-266 0 -422 137q-174 153 -170 393zM383 1307l475 200l70 -200l-492 -140zM477 647h293q0 180 -147 180 q-76 0 -111 -50t-35 -130z" />
<glyph unicode="&#xea;" d="M51 510q-2 109 39 215t113 180q156 162 416 162t410.5 -154.5t150.5 -414.5v-56h-703q0 -195 160 -194q137 0 160 127l383 -25q-45 -182 -192.5 -276t-344.5 -94q-266 0 -422 137q-174 153 -170 393zM195 1174l419 333l420 -333h-254l-166 120l-168 -120h-251zM477 647 h293q0 180 -147 180q-76 0 -111 -50t-35 -130z" />
<glyph unicode="&#xeb;" d="M51 510q-2 109 39 215t113 180q156 162 416 162t410.5 -154.5t150.5 -414.5v-56h-703q0 -195 160 -194q137 0 160 127l383 -25q-45 -182 -192.5 -276t-344.5 -94q-266 0 -422 137q-174 153 -170 393zM301 1372q0 57 39 96t96.5 39t96 -40t38.5 -95q0 -57 -39.5 -96 t-97.5 -39q-53 0 -93 40t-40 95zM477 647h293q0 180 -147 180q-76 0 -111 -50t-35 -130zM662 1372q0 57 38.5 96t96 39t96.5 -40t39 -95q0 -57 -40 -96t-97 -39q-53 0 -93 40t-40 95z" />
<glyph unicode="&#xec;" horiz-adv-x="614" d="M35 1307l69 200l476 -200l-54 -140zM94 0v1047h410v-1047h-410z" />
<glyph unicode="&#xed;" horiz-adv-x="614" d="M35 1307l475 200l70 -200l-492 -140zM94 0v1047h410v-1047h-410z" />
<glyph unicode="&#xee;" horiz-adv-x="614" d="M-113 1174l420 333l420 -333h-254l-166 120l-168 -120h-252zM94 0v1047h410v-1047h-410z" />
<glyph unicode="&#xef;" horiz-adv-x="614" d="M-6 1372q0 57 39 96t96 39t96 -40t39 -95q0 -57 -40 -96t-97 -39q-53 0 -93 40t-40 95zM94 0v1047h410v-1047h-410zM354 1372q0 57 39 96t96.5 39t96.5 -40t39 -95q0 -57 -40 -96t-98 -39q-53 0 -93 40t-40 95z" />
<glyph unicode="&#xf0;" d="M41 514q0 229 147.5 383t360.5 154q94 0 156 -35q-27 80 -68 135l-293 -94l-49 145l235 78q-20 23 -73 63l309 111q47 -37 80 -70l301 99l49 -154l-235 -76q229 -301 229 -673q0 -285 -164 -442.5t-420 -157.5q-238 0 -401.5 150.5t-163.5 383.5zM475 528q0 -164 33 -239 q29 -61 102 -62q86 0 113 78t27 223v58q0 16 -3.5 58t-12.5 63.5t-22.5 50t-38 41t-57.5 12.5q-49 0 -79.5 -27.5t-43 -79t-15.5 -87.5t-3 -89z" />
<glyph unicode="&#xf1;" horiz-adv-x="1187" d="M84 0v1047h383v-148h4q70 168 297 168q188 0 272 -109q31 -41 46.5 -99t17.5 -99t2 -115v-645h-406v635q0 33 -2 52.5t-9 46t-26.5 39.5t-50.5 13q-76 0 -99.5 -49t-23.5 -133v-604h-405zM215 1341q2 2 26.5 19.5t29.5 20.5t28 18.5t32 19.5t29.5 14.5t34 14.5t31.5 7 t35 3q51 0 138 -36t122 -36q20 0 41.5 9.5t35 18.5t37 27.5t31.5 24.5l105 -125q-131 -127 -260 -127q-47 0 -131 36t-123 36q-37 0 -76 -24q-12 -8 -66 -52z" />
<glyph unicode="&#xf2;" d="M41 514q0 248 163 400.5t412.5 152.5t412.5 -152.5t163 -400.5q0 -236 -166 -385t-409.5 -149t-409.5 149t-166 385zM301 1307l70 200l475 -200l-53 -140zM475 528q0 -190 36 -245.5t105 -55.5q33 0 54.5 8.5t43 36t33 92t11.5 164.5q0 53 -3 89t-15.5 87.5t-43 79 t-80 27.5t-80 -27.5t-43 -79t-15.5 -87.5t-3 -89z" />
<glyph unicode="&#xf3;" d="M41 514q0 248 163 400.5t412.5 152.5t412.5 -152.5t163 -400.5q0 -236 -166 -385t-409.5 -149t-409.5 149t-166 385zM383 1307l475 200l70 -200l-492 -140zM475 528q0 -190 36 -245.5t105 -55.5q33 0 54.5 8.5t43 36t33 92t11.5 164.5q0 53 -3 89t-15.5 87.5t-43 79 t-80 27.5t-80 -27.5t-43 -79t-15.5 -87.5t-3 -89z" />
<glyph unicode="&#xf4;" d="M41 514q0 248 163 400.5t412.5 152.5t412.5 -152.5t163 -400.5q0 -236 -166 -385t-409.5 -149t-409.5 149t-166 385zM195 1174l419 333l420 -333h-254l-166 120l-168 -120h-251zM475 528q0 -190 36 -245.5t105 -55.5q33 0 54.5 8.5t43 36t33 92t11.5 164.5q0 53 -3 89 t-15.5 87.5t-43 79t-80 27.5t-80 -27.5t-43 -79t-15.5 -87.5t-3 -89z" />
<glyph unicode="&#xf5;" d="M41 514q0 248 163 400.5t412.5 152.5t412.5 -152.5t163 -400.5q0 -236 -166 -385t-409.5 -149t-409.5 149t-166 385zM236 1341q2 2 26.5 19.5t29.5 20.5t27.5 18.5t31.5 19.5t29.5 14.5t34 14.5t32 7t34.5 3q51 0 138.5 -36t121.5 -36q20 0 42 9.5t35 18.5t37 27.5 t32 24.5l104 -125q-131 -127 -260 -127q-47 0 -131 36t-123 36q-37 0 -76 -24q-12 -8 -65 -52zM475 528q0 -190 36 -245.5t105 -55.5q33 0 54.5 8.5t43 36t33 92t11.5 164.5q0 53 -3 89t-15.5 87.5t-43 79t-80 27.5t-80 -27.5t-43 -79t-15.5 -87.5t-3 -89z" />
<glyph unicode="&#xf6;" d="M41 514q0 248 163 400.5t412.5 152.5t412.5 -152.5t163 -400.5q0 -236 -166 -385t-409.5 -149t-409.5 149t-166 385zM301 1372q0 57 39 96t96.5 39t96 -40t38.5 -95q0 -57 -39.5 -96t-97.5 -39q-53 0 -93 40t-40 95zM475 528q0 -190 36 -245.5t105 -55.5q33 0 54.5 8.5 t43 36t33 92t11.5 164.5q0 53 -3 89t-15.5 87.5t-43 79t-80 27.5t-80 -27.5t-43 -79t-15.5 -87.5t-3 -89zM662 1372q0 57 38.5 96t96 39t96.5 -40t39 -95q0 -57 -40 -96t-97 -39q-53 0 -93 40t-40 95z" />
<glyph unicode="&#xf7;" d="M90 406v307h1049v-307h-1049zM457 0v307h317v-307h-317zM457 811v307h317v-307h-317z" />
<glyph unicode="&#xf8;" d="M51 516q0 248 158 399.5t407 151.5q104 0 213 -33l84 131h193l-127 -211q199 -160 199 -428q0 -231 -152 -385q-162 -162 -430 -161q-106 0 -199 32l-78 -125h-190l125 205q-203 156 -203 424zM479 516q0 -31 4 -92l215 352q-35 33 -84 33q-82 0 -112 -94 q-23 -84 -23 -199zM526 268q37 -39 86 -39q80 0 111 84q25 76 25 230q0 51 -5 84z" />
<glyph unicode="&#xf9;" d="M84 324v723h405v-633q0 -47 2.5 -69.5t24 -46.5t64.5 -24q68 0 98 60q20 39 20 110v603h406v-1047h-383v172h-4q-31 -96 -119 -144t-199 -48q-147 0 -233 79q-82 83 -82 265zM188 1307l70 200l475 -200l-53 -140z" />
<glyph unicode="&#xfa;" d="M84 324v723h405v-633q0 -47 2.5 -69.5t24 -46.5t64.5 -24q68 0 98 60q20 39 20 110v603h406v-1047h-383v172h-4q-31 -96 -119 -144t-199 -48q-147 0 -233 79q-82 83 -82 265zM496 1307l475 200l69 -200l-491 -140z" />
<glyph unicode="&#xfb;" d="M84 324v723h405v-633q0 -47 2.5 -69.5t24 -46.5t64.5 -24q68 0 98 60q20 39 20 110v603h406v-1047h-383v172h-4q-31 -96 -119 -144t-199 -48q-147 0 -233 79q-82 83 -82 265zM195 1174l419 333l420 -333h-254l-166 120l-168 -120h-251z" />
<glyph unicode="&#xfc;" d="M84 324v723h405v-633q0 -47 2.5 -69.5t24 -46.5t64.5 -24q68 0 98 60q20 39 20 110v603h406v-1047h-383v172h-4q-31 -96 -119 -144t-199 -48q-147 0 -233 79q-82 83 -82 265zM301 1372q0 57 39 96t96.5 39t96 -40t38.5 -95q0 -57 -39.5 -96t-97.5 -39q-53 0 -93 40 t-40 95zM662 1372q0 57 38.5 96t96 39t96.5 -40t39 -95q0 -57 -40 -96t-97 -39q-53 0 -93 40t-40 95z" />
<glyph unicode="&#xfd;" horiz-adv-x="1105" d="M-2 1047h440l172 -558l183 558h299l-404 -1110q-59 -164 -150.5 -231.5t-265.5 -67.5q-104 0 -206 10v291q98 -12 147 -13q178 0 178 80q0 20 -26 94zM485 1307l476 200l69 -200l-491 -140z" />
<glyph unicode="&#xfe;" horiz-adv-x="1187" d="M88 -330v1735h406v-508h4q57 170 268 170q106 0 185 -48t123 -127t64.5 -169t20.5 -188q0 -215 -74 -353q-111 -203 -321 -202q-178 0 -270 133v-443h-406zM496 408q0 -170 110 -170q86 0 111 86q20 72 20 190q0 53 -2 86t-12 89t-39 87t-74 31q-53 0 -90 -43 q-25 -31 -24 -107v-249z" />
<glyph unicode="&#xff;" horiz-adv-x="1105" d="M-2 1047h440l172 -558l183 558h299l-404 -1110q-59 -164 -150.5 -231.5t-265.5 -67.5q-104 0 -206 10v291q98 -12 147 -13q178 0 178 80q0 20 -26 94zM240 1372q0 57 38.5 96t96 39t96.5 -40t39 -95q0 -57 -40 -96t-97 -39q-53 0 -93 40t-40 95zM600 1372q0 57 39 96 t96.5 39t96 -40t38.5 -95q0 -57 -39.5 -96t-97.5 -39q-53 0 -93 40t-40 95z" />
<glyph unicode="&#x152;" horiz-adv-x="2007" d="M45 698q0 324 179 525.5t493 201.5q66 0 221 -20h1001v-324h-639v-204h515v-314h-515v-227h639v-336h-1001q-12 -2 -55 -8t-64 -8q-70 -4 -102 -4q-311 0 -491.5 204.5t-180.5 513.5zM506 696q0 -395 211 -395q41 0 67.5 10.5t60.5 45t51 122.5t17 225.5t-16 224.5 t-49 122.5t-60.5 46t-70.5 10.5q-68 0 -113 -43t-64.5 -113.5t-26.5 -130t-7 -125.5z" />
<glyph unicode="&#x153;" horiz-adv-x="1761" d="M37 512q0 238 149.5 396.5t386.5 158.5q174 0 322 -94q139 94 305 94q246 0 381 -157.5t135 -407.5l-2 -62h-641q-2 -82 33 -144.5t113 -62.5q59 0 101 40t46 100l348 -25q-35 -174 -175 -271t-325 -97q-188 0 -319 96q-152 -96 -324 -96q-227 0 -372 139 q-162 157 -162 393zM449 510q0 -178 38 -236q33 -45 88 -45q92 0 115 99q14 70 15 204v15q0 53 -2.5 85t-12.5 80t-37.5 73.5t-70.5 25.5q-47 0 -78 -29.5t-41 -89t-12 -91.5t-2 -91zM1071 647h272l3 25q0 63 -34 108t-95 45q-142 0 -146 -178z" />
<glyph unicode="&#x178;" horiz-adv-x="1351" d="M2 1405h473l246 -463l235 463h377l-440 -811v-594h-418v594zM403 1731q0 57 39 96t96.5 39t96.5 -40t39 -95q0 -57 -40 -96.5t-97 -39.5q-53 0 -93.5 40.5t-40.5 95.5zM764 1731q0 57 39 96t96 39t96 -40t39 -95q0 -57 -40 -96.5t-97 -39.5q-53 0 -93 40.5t-40 95.5z" />
<glyph unicode="&#x2c6;" horiz-adv-x="1105" d="M133 1174l420 333l420 -333h-254l-166 120l-168 -120h-252z" />
<glyph unicode="&#x2dc;" horiz-adv-x="1024" d="M133 1341q2 2 26.5 19.5t30 20.5t28 18.5t31.5 19.5t29.5 14.5t34 14.5t31.5 7t35 3q51 0 138 -36t122 -36q20 0 41.5 9.5t35 18.5t37 27.5t31.5 24.5l105 -125q-131 -127 -260 -127q-47 0 -131 36t-123 36q-37 0 -76 -24q-12 -8 -66 -52z" />
<glyph unicode="&#x2000;" horiz-adv-x="952" />
<glyph unicode="&#x2001;" horiz-adv-x="1906" />
<glyph unicode="&#x2002;" horiz-adv-x="952" />
<glyph unicode="&#x2003;" horiz-adv-x="1906" />
<glyph unicode="&#x2004;" horiz-adv-x="634" />
<glyph unicode="&#x2005;" horiz-adv-x="475" />
<glyph unicode="&#x2006;" horiz-adv-x="317" />
<glyph unicode="&#x2007;" horiz-adv-x="317" />
<glyph unicode="&#x2008;" horiz-adv-x="237" />
<glyph unicode="&#x2009;" horiz-adv-x="380" />
<glyph unicode="&#x200a;" horiz-adv-x="104" />
<glyph unicode="&#x2010;" horiz-adv-x="532" d="M0 401v324h520v-324h-520z" />
<glyph unicode="&#x2011;" horiz-adv-x="532" d="M0 401v324h520v-324h-520z" />
<glyph unicode="&#x2012;" horiz-adv-x="532" d="M0 401v324h520v-324h-520z" />
<glyph unicode="&#x2013;" horiz-adv-x="1024" d="M0 401v324h1024v-324h-1024z" />
<glyph unicode="&#x2014;" horiz-adv-x="2048" d="M0 401v324h2048v-324h-2048z" />
<glyph unicode="&#x2018;" horiz-adv-x="614" d="M139 799v295l193 311h162l-142 -279h142v-327h-355z" />
<glyph unicode="&#x2019;" horiz-adv-x="614" d="M139 799l142 278h-142v328h355v-295l-193 -311h-162z" />
<glyph unicode="&#x201a;" horiz-adv-x="614" d="M147 0v326h340v-308l-182 -292h-158l140 274h-140z" />
<glyph unicode="&#x201c;" horiz-adv-x="1064" d="M150 799v295l192 311h162l-142 -279h142v-327h-354zM563 799v295l193 311h162l-142 -279h142v-327h-355z" />
<glyph unicode="&#x201d;" horiz-adv-x="1064" d="M150 799l141 278h-141v328h354v-295l-193 -311h-161zM563 799l142 278h-142v328h355v-295l-193 -311h-162z" />
<glyph unicode="&#x201e;" horiz-adv-x="1064" d="M150 0v326h339v-308l-182 -292h-157l139 274h-139zM561 0v326h344v-308l-180 -292h-164l146 274h-146z" />
<glyph unicode="&#x2022;" d="M262 702.5q0 145.5 102.5 248t248 102.5t249 -102.5t103.5 -248t-103.5 -249t-249 -103.5t-248 103.5t-102.5 249z" />
<glyph unicode="&#x2026;" horiz-adv-x="2048" d="M145 0v375h392v-375h-392zM827 0v375h392v-375h-392zM1509 0v375h392v-375h-392z" />
<glyph unicode="&#x202f;" horiz-adv-x="380" />
<glyph unicode="&#x2039;" horiz-adv-x="532" d="M104 526l179 299h145l-109 -299l109 -280h-145z" />
<glyph unicode="&#x203a;" horiz-adv-x="532" d="M104 246l109 280l-109 299h146l178 -299l-178 -280h-146z" />
<glyph unicode="&#x205f;" horiz-adv-x="475" />
<glyph unicode="&#x20ac;" d="M27 508l30 174h117q0 53 2 78h-149l30 174h146q53 229 193.5 360t340.5 131q197 0 321 -110.5t152 -302.5l-331 -19q-18 74 -51 105.5t-87 31.5q-123 0 -153 -196h286l-30 -174h-271v-78h254l-30 -174h-219q8 -119 43.5 -176.5t121.5 -57.5q104 0 144 150l321 -25 q-45 -217 -172 -318t-307 -101q-197 0 -347.5 145t-193.5 383h-161z" />
<glyph unicode="&#x2122;" horiz-adv-x="2048" d="M43 1245v160h782v-160h-280v-667h-221v667h-281zM938 578v827h324l208 -490l207 490h326v-827h-201v667h-6l-266 -667h-119l-268 667h-4v-667h-201z" />
<glyph unicode="&#xe000;" horiz-adv-x="1045" d="M0 1045h1045v-1045h-1045v1045z" />
<glyph unicode="&#xfb01;" horiz-adv-x="1269" d="M-4 784v263h117q0 211 93 306t318 95q76 0 125 -6v-266q-16 2 -37 2q-41 0 -72.5 -26t-31.5 -73v-32h141v-263h-131v-784h-405v784h-117zM758 0v1047h405v-1047h-405zM758 1147v278h405v-278h-405z" />
<glyph unicode="&#xfb02;" d="M-4 784v263h117q0 211 93 306t318 95q76 0 125 -6v-266q-16 2 -37 2q-41 0 -72.5 -26t-31.5 -73v-32h141v-263h-131v-784h-405v784h-117zM758 0v1405h405v-1405h-405z" />
<glyph unicode="&#xfb03;" horiz-adv-x="2252" d="M1734 0v1047h406v-1047h-406zM1734 1147v278h406v-278h-406zM815 754v258h147v14q0 190 76 285q92 115 328 114q84 0 301 -26v-256q-123 16 -209 16q-96 0 -96 -112q0 -17 2 -35h258v-258h-254v-754h-406v754h-147zM-4 754v258h147v14q0 190 76 285q92 115 328 114 q84 0 301 -26v-256q-123 16 -209 16q-96 0 -96 -112q0 -17 2 -35h258v-258h-254v-754h-406v754h-147z" />
<glyph unicode="&#xfb04;" horiz-adv-x="2252" d="M1742 0v1405h406v-1405h-406zM815 754v258h147v14q0 190 76 285q92 115 328 114q84 0 301 -26v-256q-123 16 -209 16q-96 0 -96 -112q0 -17 2 -35h258v-258h-254v-754h-406v754h-147zM-4 754v258h147v14q0 190 76 285q92 115 328 114q84 0 301 -26v-256q-123 16 -209 16 q-96 0 -96 -112q0 -17 2 -35h258v-258h-254v-754h-406v754h-147z" />
</font>
</defs>
</svg>
